<?xml version="1.0" encoding="utf-8"?>
<!-- Generator: Adobe Illustrator 27.5.0, SVG Export Plug-In . SVG Version: 6.00 Build 0)  -->
<svg version="1.1" id="_x31__1_" xmlns="http://www.w3.org/2000/svg" xmlns:xlink="http://www.w3.org/1999/xlink" x="0px" y="0px"
	 viewBox="0 0 454 400" style="enable-background:new 0 0 454 400;" xml:space="preserve">
<g>
	<path style="fill:#773725;" d="M246.728,50.312c-4.213-18.777-18.403-29.502-31.876-28.206
		c-16.031,1.541-22.612,4.95-31.031,27.344c-3.463,9.211-3.683,27.566-3.299,37.375l0.4,2.689
		c8.319,12.884,62.874,6.979,67.48-0.671C248.625,88.474,249.459,62.484,246.728,50.312z"/>
	<path style="fill:#662B1E;" d="M246.728,50.312c-0.683-3.045-1.652-5.853-2.814-8.457c-1.033,12.452-15.863,32.004-27.794,32.004
		c-12.566,0-30.427-17.352-28.628-33.186c-1.208,2.546-2.419,5.447-3.671,8.777c-3.463,9.211-3.683,27.566-3.299,37.375l0.4,2.689
		c8.32,12.884,62.874,6.979,67.481-0.671C248.625,88.474,249.459,62.484,246.728,50.312z"/>
	<path style="fill:#E54A55;" d="M235.9,148.925l-38.969,1.768c-33.557,91.225,25.258,223.82,25.258,223.82h1.804
		C223.993,374.512,280.643,257.122,235.9,148.925z"/>
	<path style="fill:#D3374A;" d="M224.032,168.313c8.882,0,17.125,7.443,23.943,20.153c-2.725-13.165-6.649-26.42-12.075-39.541
		l-38.969,1.768c-8.814,23.962-11.249,50.776-10.057,77.294C194.128,192.402,208.046,168.313,224.032,168.313z"/>
	<path style="fill:#FFE6BB;" d="M225.196,95.651l-21.907,1.745c0.215,27.17-5.095,45.871-12.251,72.037l49.373-9.282
		C240.411,160.151,225.88,124.067,225.196,95.651z"/>
	<path style="fill:#EFD1A5;" d="M216.73,133.491c10.04,0,18.718,11.973,22.848,26.816l0.832-0.156c0,0-14.53-36.084-15.215-64.5
		l-21.907,1.745c0.215,27.17-5.095,45.871-12.251,72.037l0.976-0.184C194.684,150.587,204.733,133.491,216.73,133.491z"/>
	<path style="fill:#FFE6BB;" d="M205.337,84.81c-32.171,8.801-61.74,22.002-61.74,22.002l2.129,7.874
		c0,0,53.934-11.811,57.482-13.432C206.757,99.632,205.337,84.81,205.337,84.81z"/>
	<path style="fill:#EFD1A5;" d="M174.583,103.191c-11.196,3.283-21.681,5.597-30.126,6.805l1.268,4.69
		c0,0,53.934-11.812,57.482-13.432c1.881-0.86,2.366-5.429,2.406-9.533C197.626,95.537,186.765,99.62,174.583,103.191z"/>
	<path style="fill:#B53A52;" d="M164.845,104.071c-1.198-3.388-5.516-4.951-9.644-3.491c-4.127,1.46-6.502,5.39-5.303,8.779
		c1.199,3.388,5.516,4.951,9.644,3.491C163.669,111.39,166.043,107.459,164.845,104.071z"/>
	<path style="fill:#EDB984;" d="M100.17,126.118c1.631-3.515,49.974-23.337,55.206-23.513c5.232-0.177,7.397,5.657,2.526,8.663
		C153.031,114.273,99.268,128.063,100.17,126.118z"/>
	<path style="fill:#E79B69;" d="M158.903,103.649c-0.226,1.312-1.096,2.686-2.791,3.817c-4.11,2.743-41.313,15.099-55.369,18.832
		c5.685-0.081,52.622-12.231,57.159-15.031C161.434,109.089,161.255,105.434,158.903,103.649z"/>
	<path style="fill:#FFE6BB;" d="M222.682,84.004c33.192,5.145,64.291,14.954,64.291,14.954l-1.218,8.061
		c0,0-55.305-5.702-59.041-6.916C222.978,98.889,222.682,84.004,222.682,84.004z"/>
	<path style="fill:#EFD1A5;" d="M254.254,97.508c-12.128-2.163-23.049-4.869-31.161-7.56c0.474,4.296,1.485,9.461,3.622,10.155
		c3.736,1.214,59.041,6.916,59.041,6.916l0.879-5.817C278.027,100.957,266.636,99.716,254.254,97.508z"/>
	<path style="fill:#B53A52;" d="M284.657,102.551c0.826-3.498-1.958-7.149-6.219-8.155c-4.261-1.006-8.385,1.013-9.211,4.511
		c-0.826,3.497,1.958,7.149,6.219,8.155C279.707,108.068,283.831,106.049,284.657,102.551z"/>
	<path style="fill:#EDB984;" d="M334.266,114.061c-1.974-3.332-51.554-18.188-56.711-17.839s-6.665,6.37-1.563,8.87
		C281.095,107.592,335.358,115.904,334.266,114.061z"/>
	<path style="fill:#E79B69;" d="M278.679,101.132c-1.871-1.159-2.711-2.927-2.713-4.581c-3.817,1.339-4.503,6.322,0.026,8.541
		c4.349,2.131,44.395,8.48,55.452,9.168C316.423,111.589,282.098,103.251,278.679,101.132z"/>
	<path style="fill:#EFD1A5;" d="M201.7,87.3c-3.356,4.848-7.35,36.522-6.29,37.596c1.06,1.075,36.936-0.702,37.684-1.875
		c0.748-1.173-5.484-34.742-6.465-36.332C225.407,84.708,203.066,85.327,201.7,87.3z"/>
	<path style="fill:#FFE6BB;" d="M202.151,85.7c-3.144,4.753-6.543,36.208-5.551,37.262c0.993,1.054,34.596-0.689,35.296-1.838
		c0.701-1.15-5.449-34.586-6.368-36.145C224.385,83.036,203.43,83.766,202.151,85.7z"/>
	<path style="fill:#FFE6BB;" d="M226.158,378h-18.943c0,0,12.733-7.154,14.613-7.701C223.708,369.752,226.158,378,226.158,378z"/>
	<path style="fill:#FFE6BB;" d="M221.467,378h15.876c0,0-9.028-7.336-11.016-7.883C224.34,369.57,221.467,378,221.467,378z"/>
	<rect x="99.148" y="351.78" style="fill:#847444;" width="250.412" height="11.546"/>
	<polygon style="fill:#847444;" points="315.052,353.223 324.373,353.223 320.685,378 317.578,378 	"/>
	<polygon style="fill:#847444;" points="343.817,353.223 353.138,353.223 349.45,378 346.342,378 	"/>
	<polygon style="fill:#847444;" points="95.33,353.223 104.651,353.223 100.963,378 97.856,378 	"/>
	<polygon style="fill:#847444;" points="124.095,353.223 133.416,353.223 129.728,378 126.621,378 	"/>
	<path style="fill:#E89038;" d="M368.563,304.753H87.313l6.409-101.081c0.962-10.374,5.335-17.87,10.423-17.87h247.587
		c5.088,0,9.461,7.497,10.423,17.87L368.563,304.753z"/>
	<path style="fill:#FFB845;" d="M362.392,304.753H92.19l6.157-101.081c0.924-10.374,5.125-17.87,10.013-17.87h237.861
		c4.888,0,9.089,7.497,10.013,17.87L362.392,304.753z"/>
	<path style="fill:#F4A13D;" d="M324.743,212.434c-3.074-9.337-4.376-18.527-4.092-26.633h-80.996
		c-9.238,33.963-10.514,86.753-23.902,86.753c-13.803,0-35.328-50.294-36.016-86.753h-47.307c1.171,6.216,1.816,12.865,1.816,19.788
		c0,34.217-15.511,61.955-34.644,61.955c-1.735,0-3.438-0.235-5.105-0.675l-2.308,37.884h270.201l-3.308-54.307
		C346.309,249.581,331.902,234.177,324.743,212.434z"/>
	<path style="fill:#E89038;" d="M400.331,234.572l2.73,62.418c-32.749,0-38.444,37.084-38.444,37.084l-13.098-22.827
		C360.9,248.945,377.739,234.572,400.331,234.572z"/>
	
		<ellipse transform="matrix(0.7071 -0.7071 0.7071 0.7071 -70.4764 361.4225)" style="fill:#FFB845;" cx="401.037" cy="265.784" rx="31.271" ry="31.271"/>
	<path style="fill:#E89038;" d="M51.057,234.572l-3.352,62.039c32.749,0,39.067,37.463,39.067,37.463l13.098-22.827
		C90.488,248.945,73.65,234.572,51.057,234.572z"/>
	<path style="fill:#542D32;" d="M169.306,139.429c-9.034-11.085-16.847-17.078-33.78-13.816
		c-20.636,3.975-19.053,29.383-18.172,38.771c0.562,5.996,2.444,11.994,6.634,15.929c0.4,0.376,0.857,0.747,1.419,0.777
		c0.563,0.03,1.222-0.445,1.195-1.027c0.198,3.691,2.946,6.648,6.239,8.017c3.321,1.38,7.141,1.419,10.901,1.254
		c6.747-0.297,13.63-1.195,20.55-2.695c0.63-0.136,1.303-0.276,1.882-0.059c0.379,0.142,0.684,0.428,1.074,0.547
		c0.815,0.249,1.714-0.282,2.432-0.831c6.714-5.134,9.855-13.948,9.268-21.893C178.361,156.469,174.084,145.292,169.306,139.429z"/>
	<path style="fill:#47252B;" d="M178.946,164.403c-0.585-7.934-4.862-19.111-9.64-24.975c-3.486-4.278-6.796-7.787-10.513-10.309
		c5.086,8.593,0.919,20.637-9.438,27.049c-10.463,6.478-23.266,4.751-28.595-3.857c-1.857-2.999-2.538-6.439-2.226-9.921
		c-2.258,8.18-1.631,17.185-1.18,21.992c0.563,5.996,2.445,11.994,6.634,15.929c0.4,0.376,0.857,0.747,1.419,0.777
		c0.563,0.03,1.222-0.445,1.195-1.027c0.198,3.691,2.947,6.648,6.239,8.017c3.321,1.38,7.141,1.419,10.901,1.254
		c6.747-0.297,13.63-1.195,20.55-2.695c0.63-0.136,1.303-0.276,1.882-0.059c0.379,0.142,0.684,0.428,1.074,0.547
		c0.815,0.249,1.714-0.282,2.432-0.831C176.392,181.162,179.533,172.348,178.946,164.403z"/>
	<path style="fill:#7C5969;" d="M146.393,179.848c-13.61,7.672-19.019,49.214-15.532,53.328c3.487,4.114,12.188-3.758,10.82-7.367
		c-1.369-3.609,1.731-24.637,4.994-28.966C151.827,190.008,153.327,175.939,146.393,179.848z"/>
	<path style="fill:#6D4A5C;" d="M146.393,179.848c-0.356,0.2-0.702,0.437-1.046,0.682c-10.532,10.509-12.371,46.41-9.394,53.169
		c3.362-1.547,6.602-5.583,5.727-7.89c-1.369-3.609,1.731-24.637,4.994-28.966C151.827,190.008,153.327,175.939,146.393,179.848z"/>
	<g>
		<path style="fill:#E79B69;" d="M142.025,222.363c-2.786-1.675-5.136-4.475-6.338-4.166c-1.202,0.309-2.831,4.847,0.374,5.825
			c3.205,0.978,7.919,0.895,7.919,0.895L142.025,222.363z"/>
		<path style="fill:#E79B69;" d="M141.876,221.699c-2.574-2.428-4.567-8.582-5.336-8.421c-0.731,0.153,1.111,7.567,2.005,8.263
			C139.472,222.263,142.913,222.677,141.876,221.699z"/>
		<path style="fill:#E79B69;" d="M140.279,220.169c-5.684-1.464-8.344-6.08-8.962-6.079c-0.619,0,0.963,3.979,4.011,5.66
			C138.376,221.432,140.279,220.169,140.279,220.169z"/>
		<path style="fill:#E79B69;" d="M140.035,221.785c-5.782-0.865-9.678-5.594-10.415-5.509c-0.727,0.084,2.055,4.003,5.333,5.249
			C137.924,222.656,140.035,221.785,140.035,221.785z"/>
		<path style="fill:#E79B69;" d="M140.048,223.984c-6.231-1.145-9.378-4.693-9.83-4.597c-0.434,0.092,1.479,2.859,4.3,4.056
			C137.803,224.836,140.048,223.984,140.048,223.984z"/>
	</g>
	<path style="fill:#7C5969;" d="M197.035,264.87c-23.333-28.625-24.712-68.387-27.779-78.13
		c-1.086-3.449-9.128-12.125-16.259-11.992c-6.017,0.112-11.228,15.327-10.563,21.309c1.263,11.366,16.619,41.914,6.268,63.833
		L197.035,264.87z"/>
	<path style="fill:#6D4A5C;" d="M152.153,246.236c2.267-5.081,4.109-8.456,7.022-9.12c6.446-1.468,20.356,11.92,25.763,26.507
		l12.097,1.246c-23.333-28.626-24.712-68.387-27.779-78.13c-1.086-3.449-9.128-12.124-16.259-11.991
		c-6.018,0.112-12.572,16.915-11.907,22.897C142.122,206.94,153.521,225.136,152.153,246.236z"/>
	<path style="fill:#FFE6BB;" d="M178.694,302.37h-53.927c0,0-13.711-19.886-10.103-33.807c2.393-9.233,66.392-13.589,76.494-8.617
		c6.701,3.298,12.918,11.057,10.378,22.192C198.736,294.416,190.989,302.37,178.694,302.37z"/>
	<path style="fill:#F2D4A7;" d="M191.158,259.946c-3.196-1.573-11.788-2.211-22.114-2.058c11.323,1.693,18.725,4.482,18.725,7.639
		c0,5.163-20.158-1.401-44.554-1.401c-11.342,0-21.303,9.844-29.126,8.357c-0.654,13.448,10.677,29.887,10.677,29.887h53.927
		c12.295,0,20.042-7.955,22.843-20.232C204.076,271.003,197.859,263.244,191.158,259.946z"/>
	<path style="fill:#7C5969;" d="M169.629,187.485c-10.454-18.556-23.285-17.888-28.717,2.119
		c-3.575,13.167-3.517,26.988-1.833,29.393c1.684,2.405,31.271,1.684,32.715-0.722C173.237,215.87,171.8,191.338,169.629,187.485z"
		/>
	<path style="fill:#6D4A5C;" d="M169.629,187.485c-2.282-4.05-4.764-7.163-7.308-9.348c-7.912,6.464-0.745,37.136-1.863,39
		c-0.903,1.506-11.882,2.268-21.094,2.101c3.443,2.112,31.037,1.359,32.43-0.962C173.237,215.87,171.8,191.338,169.629,187.485z"/>
	<path style="fill:#E79B69;" d="M171.954,236.378c-5.369,1.587-35.388-13.074-35.918-14.133c-0.53-1.059,32.207,1.305,34.858,2.453
		C173.544,225.844,175.533,235.32,171.954,236.378z"/>
	<path style="fill:#EFD1A5;" d="M140.219,231.338c1.219-4.05-0.302-8.031-3.399-8.892c-3.097-0.861-6.595,1.724-7.815,5.773
		c-1.219,4.05,0.302,8.031,3.399,8.892C135.5,237.972,138.999,235.387,140.219,231.338z"/>
	<path style="fill:#EDB984;" d="M132.973,235.383c5.629,1.548,36.008-13.305,36.507-14.367c0.499-1.062-33.264,1.527-35.954,2.692
		C130.838,224.873,129.221,234.352,132.973,235.383z"/>
	<path style="fill:#E79B69;" d="M166.726,220.77c-2.789,2.754-11.041,6.173-21.197,8.528c-5.449,1.264-10.562,2.013-14.738,2.255
		c0.125,1.874,0.777,3.444,2.182,3.83c5.629,1.548,36.008-13.305,36.507-14.367C169.572,220.823,168.515,220.751,166.726,220.77z"/>
	<path style="fill:#EFD1A5;" d="M172.039,227.101c-2.324-3.554-6.252-4.819-8.772-2.824c-2.52,1.994-2.68,6.492-0.355,10.047
		c2.324,3.554,6.252,4.819,8.772,2.824C174.204,235.154,174.364,230.656,172.039,227.101z"/>
	<path style="fill:#7C5969;" d="M164.135,180.198c12.671,9.228,13.131,51.118,9.162,54.791c-3.969,3.673-11.718-5.173-9.923-8.595
		c1.795-3.422,1.201-24.669-1.541-29.353C157.504,189.644,157.679,175.496,164.135,180.198z"/>
	<path style="fill:#6D4A5C;" d="M164.135,180.198c-2.342-1.706-3.854-0.923-4.628,1.111c5.219,2.532,9.969,12.647,11.332,25.176
		c1.299,11.94-0.876,22.408-5.023,26.48c2.242,2.402,5.384,3.965,7.481,2.024C177.266,231.316,176.807,189.425,164.135,180.198z"/>
	<path style="fill:#B53A52;" d="M317.098,169.564c14.662,11.306,31.981,38.728,32.943,48.11c0.962,9.381-8.9,26.701-20.206,26.46
		c-11.306-0.24-24.777-27.663-24.777-27.663L317.098,169.564z"/>
	<path style="fill:#A02E49;" d="M314.4,180.072l-9.342,36.399c0,0,13.471,27.423,24.776,27.663c1.97,0.042,3.893-0.458,5.725-1.347
		c3.93-9.265,2.679-24.812-3.984-39.809C326.982,192.636,320.719,184.599,314.4,180.072z"/>
	<path style="fill:#B53A52;" d="M319.972,172.21c-6.735-9.863-49.072-12.268-53.883-9.141c-4.811,3.127-16.117,15.636-21.409,32.234
		c-5.292,16.598-16.839,74.57,1.063,92.715l72.545-24.399C307.945,240.286,326.708,182.073,319.972,172.21z"/>
	<path style="fill:#A02E49;" d="M258.551,250.069c16.936,5.486,38.882-14.79,38.882-14.79l17.903,14.789l0.465-26.954l-20.514-6.679
		l-46.102,10.82L258.551,250.069z"/>
	<path style="fill:#A02E49;" d="M258.767,216.098c0-21.455,5.689-40.765,14.763-54.25c-3.7,0.147-6.421,0.559-7.441,1.222
		c-4.811,3.127-16.117,15.636-21.409,32.234c-5.292,16.598-16.839,74.57,1.063,92.715l32.918-11.071
		C266.648,263.64,258.767,241.355,258.767,216.098z"/>
	<path style="fill:#3F3235;" d="M358.482,256.392c0,0-61.111-9.717-71.879,14.273c-4.691,10.45,10.638,30.52,19.298,31.681h47.268
		L358.482,256.392z"/>
	<path style="fill:#3F3235;" d="M307.318,256.291c0,0-55.771-9.616-66.54,14.375c-4.691,10.45,10.638,30.52,19.298,31.681h47.268
		L307.318,256.291z"/>
	<path style="fill:#FFB845;" d="M359.939,300.904H92.016c-6.033,0-10.573,5.497-9.432,11.421l7.306,37.944
		c0.975,5.066,5.409,8.727,10.568,8.727h251.038c5.159,0,9.593-3.661,10.568-8.727l7.306-37.944
		C370.512,306.401,365.972,300.904,359.939,300.904z"/>
	<path style="fill:#E89038;" d="M150.623,358.997h14.082c0.001-15.513-0.067-39.443-0.436-58.093h-30.756L150.623,358.997z"/>
	<path style="fill:#E89038;" d="M271.327,358.997h14.082c2.991-15.513,7.533-39.443,10.758-58.093h-30.756L271.327,358.997z"/>
	<path style="fill:#E89038;" d="M321.062,358.997h14.082c3.734-15.513,9.423-39.443,13.542-58.093H317.93L321.062,358.997z"/>
	<path style="fill:#A02E49;" d="M289.309,195.188c-2.903-13.4-8.945-23.462-13.495-22.476c-4.551,0.986-5.887,12.648-2.984,26.048
		c2.903,13.399,8.945,23.462,13.496,22.476C290.875,220.249,292.211,208.587,289.309,195.188z"/>
	<path style="fill:#B53A52;" d="M249.251,178.765c-8.324,14.273-2.29,45.969,3.956,53.035c6.246,7.067,23.815,11.779,31.354,3.232
		c7.539-8.547,2.178-54.534-7.707-68.716C270.772,157.591,258.911,162.201,249.251,178.765z"/>
	<path style="fill:#A02E49;" d="M282.201,225.704c-11.335,2.17-23.629-12.299-27.461-32.318c-1.552-8.107-1.477-15.88-0.086-22.405
		c-1.841,2.204-3.659,4.792-5.404,7.783c-8.324,14.273-3.212,47.256,3.034,54.322c6.246,7.067,24.737,10.491,32.276,1.945
		c1.852-2.099,2.921-6.465,3.341-12.056C286.199,224.364,284.29,225.305,282.201,225.704z"/>
	<path style="fill:#4F3E42;" d="M330.075,374.086c-1.242-57.252-1.13-100.891,4.691-111.455c4.251-7.715,31.668-11.228,37.892,2.404
		C380.377,281.943,330.075,374.086,330.075,374.086z"/>
	<path style="fill:#3F3235;" d="M333.178,281.259c0.762-7.642,2.199-14.827,4.126-21.257c-1.14,0.797-2.015,1.681-2.537,2.628
		c-5.821,10.564-8.057,51.47-4.691,111.455c0,0,9.365-17.157,19.393-38.019C337.617,333.16,330.382,309.294,333.178,281.259z"/>
	<path style="fill:#4F3E42;" d="M282.086,374.086c-5.412-57.97-9.307-102.567-4.256-113.264c3.689-7.812,31.678-10.959,38.895,2.844
		C325.676,280.787,282.086,374.086,282.086,374.086z"/>
	<path style="fill:#3F3235;" d="M279.057,276.818c-0.14-6.539,0.039-12.859,0.488-18.848c-1.355,0.871-2.363,1.857-2.872,2.936
		c-5.051,10.697-2.021,54.845,5.412,113.18c0,0,6.777-14.507,14.437-33.126C287.068,333.15,279.715,307.467,279.057,276.818z"/>
	<path style="fill:#4F3E42;" d="M351.822,221.352c0-12.857-15.012-19.424-27.311-18.513c-12.3,0.911-17.23,8.956-17.23,21.813
		c0,12.857,9.971,22.54,22.271,21.629C341.851,245.37,351.822,234.209,351.822,221.352z"/>
	<path style="fill:#EDB984;" d="M284.856,197.947c3.433,13.645,31.742,49.105,44.603,46.971
		c12.861-2.134,21.062-23.192,17.397-30.499C343.19,207.113,303.263,187.597,284.856,197.947z"/>
	<path style="fill:#E79B69;" d="M318.828,221.261c0-6.99,6.083-13.075,15.088-16.311c-14.258-7.32-36.591-14.014-49.06-7.003
		c3.433,13.645,31.742,49.105,44.603,46.971c3.728-0.619,7.061-2.833,9.83-5.836C327.407,236.6,318.828,229.566,318.828,221.261z"/>
	<path style="fill:#4F3E42;" d="M295.915,216.587c0-12.857-15.012-19.424-27.311-18.513c-12.3,0.911-17.23,8.956-17.23,21.813
		c0,12.857,9.971,22.54,22.271,21.629C285.944,240.604,295.915,229.443,295.915,216.587z"/>
	<path style="fill:#EDB984;" d="M330.171,200.754c-8.294,13.226-49.69,43.257-62.104,38.188
		c-12.414-5.068-13.428-28.503-7.117-35.176C267.261,197.093,314.961,186.018,330.171,200.754z"/>
	<path style="fill:#E79B69;" d="M301.448,218.353c-19.35,5.723-37.131,3.282-39.714-5.453c-1.143-3.865,0.885-8.313,5.172-12.568
		c-2.847,1.175-4.941,2.361-5.956,3.434c-6.311,6.673-5.297,30.108,7.117,35.176c12.414,5.069,53.81-24.962,62.105-38.188
		c-0.047-0.045-0.102-0.084-0.149-0.129C325.682,207.42,314.977,214.352,301.448,218.353z"/>
	<path style="fill:#FFE6BB;" d="M278.101,378h16.743c0,0-10.627-7.538-12.458-8.085C280.556,369.368,278.101,378,278.101,378z"/>
	<path style="fill:#FFE6BB;" d="M327.945,378h16.743c0,0-10.628-7.538-12.458-8.085C330.4,369.368,327.945,378,327.945,378z"/>
	<path style="fill:#EDB984;" d="M156.865,374.873c-26.441-49.285-42.011-94.59-40.161-104.079
		c1.351-6.93,42.238-12.091,46.015,3.226C165.058,283.51,156.865,374.873,156.865,374.873z"/>
	<path style="fill:#E79B69;" d="M162.719,274.02c-0.502-2.035-1.674-3.699-3.306-5.055c0.837,5.283,1.296,10.928,1.296,16.8
		c0,26.88-9.493,49.098-21.829,52.733c5.218,11.517,11.246,23.814,17.985,36.375C156.865,374.873,165.058,283.51,162.719,274.02z"/>
	<path style="fill:#FFE6BB;" d="M158.684,378h-18.943c0,0,12.733-7.154,14.613-7.701C156.234,369.752,158.684,378,158.684,378z"/>
	<path style="fill:#FFE6BB;" d="M153.993,378h11.727c0,0-6.669-7.336-8.137-7.883C156.115,369.57,153.993,378,153.993,378z"/>
	
		<ellipse transform="matrix(0.9732 -0.2298 0.2298 0.9732 -59.6476 19.2782)" style="fill:#FFB845;" cx="52.963" cy="265.784" rx="31.271" ry="31.271"/>
	<path style="fill:#6D4A5C;" d="M165.491,181.368c-0.072-0.072-0.141-0.151-0.214-0.22c-9.005-10.611-19.536-8.875-24.864,4.829
		c-0.542,0.833-1.061,1.724-1.562,2.658c3.773,2.737,12.398,1.453,21.053-3.494C161.937,183.979,163.806,182.702,165.491,181.368z"
		/>
	<path style="fill:#EFD1A5;" d="M157.335,177.323c0.383-0.603,0.701-1.219,0.975-1.838c-4.966-2.355-9.884-1.26-13.749,3.24
		c0.339,1.36,1.047,2.492,2.144,3.189C149.738,183.843,154.497,181.787,157.335,177.323z"/>
	<path style="fill:#D27558;" d="M145.432,175.043l-1.154-14.832l6.971-6.599l4.926,21.377
		C150.333,182.457,146.633,182.867,145.432,175.043z"/>
	<path style="fill:#EDB984;" d="M141.76,178.48c-12.218-9.264-15.522-30.59-11.327-38.876c3.253-6.424,21.499-1.915,22.774,11.748
		C155.001,170.571,141.76,178.48,141.76,178.48z"/>
	<path style="fill:#542D32;" d="M160.181,145.409c-0.755-7.309-25.467-12.414-25.933-10.217c-0.462,2.181-0.168,4.851,1.155,7.373
		c1.223,2.331,3.203,4.364,5.153,6.345c3.269,3.322,6.624,6.731,10.07,10.233c1.763,1.792,3.641,3.738,4.558,5.895
		c0.494,1.162,0.712,2.383,1.597,3.461c0.912-5.001,1.837-10.069,2.774-15.205C160.012,150.789,160.474,148.236,160.181,145.409z"/>
	<path style="fill:#EDB984;" d="M155.291,156.958c0.265-2.811-0.765-5.33-2.302-5.626c-1.537-0.297-2.998,1.741-3.263,4.552
		c-0.265,2.811,0.765,5.33,2.302,5.626S155.026,159.768,155.291,156.958z"/>
	<path style="fill:#D27558;" d="M154.414,156.997c0.179-1.893-0.516-3.59-1.551-3.79c-1.035-0.2-2.019,1.173-2.198,3.066
		c-0.179,1.893,0.516,3.59,1.551,3.79C153.251,160.263,154.235,158.891,154.414,156.997z"/>
	<path style="fill:#EDB984;" d="M153.633,158.399c0.116-1.227-0.335-2.327-1.006-2.457c-0.671-0.13-1.309,0.76-1.425,1.987
		c-0.116,1.227,0.335,2.327,1.006,2.457C152.879,160.516,153.517,159.626,153.633,158.399z"/>
	<path style="fill:#E79B69;" d="M155.631,368.602c-8.743-36.89-21.1-94.343-21.385-96.293c-0.428-2.933,0.611-4.949,1.833,0.183
		C137.301,277.625,155.631,368.602,155.631,368.602z"/>
	<path style="fill:#A02E49;" d="M278.386,176.298c17.138,5.431,33.543,1.948,36.942-7.752c-10.919-5.641-35.03-7.556-45.105-6.465
		c-3.159-0.374-6.762,0.925-10.439,3.826C264.389,170.175,270.832,173.904,278.386,176.298z"/>
	<path style="fill:#4F3E42;" d="M308.743,165.991c-8.13-2.444-18.894-3.776-27.64-4.117c3.232,6.136,8.786,11.117,14.657,12.501
		C302.469,175.956,307.545,172.36,308.743,165.991z"/>
	<path style="fill:#773725;" d="M318.277,118.038c0.076-1.15,0.546-2.34,0.173-3.41c-0.471-1.354-2.074-1.902-2.782-3.128
		c-0.227-0.393-0.352-0.842-0.56-1.246c-1.022-1.987-3.594-2.334-5.791-2.455c-2.903-0.16-5.866-0.309-8.655,0.597
		c-0.57,0.185-1.14,0.416-1.729,0.434c-0.417,0.013-0.824-0.081-1.225-0.175c-0.955-0.223-1.909-0.445-2.861-0.667
		c-1.08-0.252-2.249-0.495-3.287-0.015c-0.823,0.38-1.42,1.153-2.127,1.742c-1.172,0.976-2.633,1.436-3.949,2.163
		c-1.314,0.727-2.596,1.915-2.754,3.444c-0.041,0.396-0.009,0.819-0.206,1.167c-0.171,0.302-0.478,0.483-0.747,0.692
		c-0.874,0.68-1.41,1.742-1.807,2.803c-1.49,3.98-1.421,8.543,0.199,12.361c0.226,0.532,0.482,1.057,0.601,1.633
		c0.108,0.524,0.098,1.071,0.132,1.609c0.129,2.042,0.923,4.011,2.22,5.494c1.076,1.229,2.477,2.128,3.43,3.483
		c1.358,1.931,1.623,4.501,1.843,6.947l24.83-13.729c1.688-1.545,3.23-3.267,4.593-5.13c0.382-0.522,0.763-1.088,0.83-1.735
		c0.075-0.728-0.26-1.425-0.314-2.151c-0.095-1.289,0.689-2.48,0.911-3.756C319.654,122.656,318.121,120.401,318.277,118.038z"/>
	<path style="fill:#D27558;" d="M285.158,162.093c5.708-16.825,7.798-29.933,7.798-29.933l16.913,5.471l-1.974,28.106
		C299.743,173.754,291.042,170.926,285.158,162.093z"/>
	<path style="fill:#EDB984;" d="M293.332,123.196c-1.356,3.68,0.754,33.298,2.826,35.303c2.072,2.005,20.061,2.059,21.529,1.443
		c1.468-0.616-0.392-36.509-4.324-39.922C309.141,116.357,296.237,119.989,293.332,123.196z"/>
	<path style="fill:#773725;" d="M300.615,116.12c-0.817-0.987-2.131-1.538-3.407-1.43c-1.276,0.108-2.479,0.874-3.117,1.985
		l0.188-2.963c-4.671,3.175-7.576,8.794-7.464,14.441c0.042,2.108,0.473,4.187,0.945,6.242c0.478,2.08,1.006,4.165,1.906,6.101
		c0.143,0.308,0.336,0.645,0.667,0.721c0.55,0.126,0.922-0.515,1.236-0.983c0.754-1.123,2.254-1.684,3.56-1.332
		c0.258,0.07,0.52,0.172,0.784,0.133c0.844-0.123,0.846-1.31,0.88-2.162c0.049-1.227,0.638-2.357,1.166-3.465
		c1.711-3.592,2.906-7.43,3.537-11.359C301.823,120.012,301.93,117.708,300.615,116.12z"/>
	<path style="fill:#EDB984;" d="M294.361,133.433c-1.878-3.054-4.668-4.485-6.231-3.196c-1.564,1.289-1.309,4.809,0.569,7.863
		c1.878,3.054,4.668,4.485,6.231,3.196C296.494,140.007,296.239,136.487,294.361,133.433z"/>
	<path style="fill:#D27558;" d="M293.781,134.571c-1.253-2.037-3.114-2.992-4.158-2.132c-1.043,0.86-0.873,3.209,0.38,5.246
		c1.253,2.037,3.114,2.992,4.158,2.132C295.204,138.958,295.034,136.609,293.781,134.571z"/>
	<path style="fill:#EDB984;" d="M294.519,137.34c-0.864-1.406-2.148-2.064-2.868-1.471c-0.719,0.593-0.602,2.213,0.262,3.619
		c0.864,1.406,2.148,2.064,2.868,1.471C295.5,140.366,295.383,138.746,294.519,137.34z"/>
	
		<ellipse transform="matrix(0.7071 -0.7071 0.7071 0.7071 -70.4764 361.4225)" style="fill:#FFCC5A;" cx="401.037" cy="265.784" rx="20.245" ry="20.245"/>
	
		<ellipse transform="matrix(0.9732 -0.2298 0.2298 0.9732 -59.6475 19.2782)" style="fill:#FFCC5A;" cx="52.963" cy="265.784" rx="20.245" ry="20.245"/>
	<path style="fill:#EFD1A5;" d="M222.683,84.004c0,0,0,0.023,0.001,0.059c-5.536-0.842-18.361-0.137-19.856,1.446
		c-4.163,1.172-8.265,2.412-12.257,3.679c5.529,3.234,13.805,5.364,23.098,5.505c11.724,0.177,21.929-2.855,27.071-7.439
		C234.915,86.072,228.835,84.958,222.683,84.004z"/>
	<path style="fill:#B53A52;" d="M224.307,84.184c-3.305-1.915-13.503-1.405-18.414,0.29c1.731,3.075,5.213,5.179,9.234,5.179
		C219.158,89.652,222.58,87.272,224.307,84.184z"/>
	<path style="fill:#D27558;" d="M220.119,59.055l-10.596,3.498l-0.747,21.53c3.612,5.645,10.1,4.418,13.026-0.512L220.119,59.055z"
		/>
	<path style="fill:#EDB984;" d="M216.39,83.571c-17.139-11.315-16.237-28.729-16.237-34.74c0-6.011,7.217-14.939,15.155-14.939
		c7.938,0,14.974,9.282,14.974,14.939C230.282,62.591,229.26,71.431,216.39,83.571z"/>
	<path style="fill:#773725;" d="M232.832,36.411c-5.188-7.168-12.977-11.769-17.398-10.277c-4.421,1.492-3.798,8.512,1.39,15.68
		c5.188,7.168,12.977,11.769,17.398,10.277C238.642,50.598,238.02,43.578,232.832,36.411z"/>
	<path style="fill:#773725;" d="M193.224,38.708c4.311-8.279,12.344-14.731,17.942-14.41c5.597,0.321,6.64,7.293,2.328,15.573
		c-4.311,8.279-12.344,14.731-17.941,14.41C189.955,53.959,188.912,46.987,193.224,38.708z"/>
	<path style="fill:#EDB984;" d="M200.534,63.001c-0.954-2.013-2.518-3.27-3.493-2.807c-0.976,0.462-0.994,2.469-0.04,4.482
		c0.954,2.013,2.518,3.27,3.493,2.807C201.47,67.02,201.488,65.014,200.534,63.001z"/>
	<path style="fill:#EDB984;" d="M234.118,64.825c0.985-1.998,1.001-4.004,0.037-4.481c-0.965-0.477-2.546,0.756-3.531,2.754
		c-0.985,1.998-1.001,4.004-0.037,4.481C231.553,68.056,233.133,66.823,234.118,64.825z"/>
	<g>
		<path style="fill:#5A4949;" d="M210.926,60.182c-0.124-1.389-1.074-2.479-2.121-2.435c-1.048,0.043-1.798,1.204-1.674,2.593
			c0.123,1.389,1.073,2.479,2.121,2.435C210.299,62.731,211.049,61.571,210.926,60.182z"/>
		<path style="fill:#773725;" d="M209.359,51.974l-5.086,1.594c-0.427,0.134-0.72,0.49-0.653,0.796l0.252,1.154
			c0.067,0.306,0.468,0.446,0.896,0.312l5.086-1.594c0.428-0.134,0.72-0.491,0.654-0.797l-0.252-1.154
			C210.187,51.979,209.786,51.84,209.359,51.974z"/>
		<path style="fill:#5A4949;" d="M223.448,59.831c-0.079-1.417-0.884-2.407-1.796-2.211c-0.912,0.196-1.587,1.504-1.507,2.921
			c0.08,1.418,0.884,2.408,1.796,2.212C222.853,62.556,223.528,61.248,223.448,59.831z"/>
		<path style="fill:#773725;" d="M224.936,53.038l-4.133-1.68c-0.358-0.146-0.749-0.078-0.877,0.162l-0.544,1.017
			c-0.162,0.305,0.052,0.701,0.485,0.87l4.969,1.943c0.403,0.158,0.726-0.016,0.723-0.371l-0.01-1.191
			C225.547,53.506,225.273,53.175,224.936,53.038z"/>
		<path style="fill:#D27558;" d="M217.745,65.234c-1.042,1.349-1.928,1.98-2.985,1.458c-0.66-0.326-1.167-0.952-1.503-1.47l-0.045,0
			c0,0,0.757,1.691,1.842,2.284C216.128,68.092,216.861,67.113,217.745,65.234z"/>
		<path style="fill:#332828;" d="M211.295,71.063l8.826-1.024c0,0-0.398,4.43-3.479,5.313
			C213.561,76.236,211.295,71.063,211.295,71.063z"/>
		<path style="fill:#F9F7ED;" d="M212.296,71.099c0,0,0.351,0.8,0.954,1.645l5.828-0.676c0.364-0.957,0.446-1.808,0.446-1.808
			L212.296,71.099z"/>
	</g>
	<g>
		<path style="fill:#EDB984;" d="M327.309,111.22c3.26,0.505,6.915-0.131,7.65,0.877c0.734,1.009-0.957,5.534-4.09,4.225
			c-3.132-1.309-6.747-4.401-6.747-4.401L327.309,111.22z"/>
		<path style="fill:#EDB984;" d="M327.858,110.807c3.586-0.208,9.15-3.645,9.644-3.028c0.469,0.587-5.799,5.086-6.948,5.046
			C329.361,112.783,326.413,110.891,327.858,110.807z"/>
		<path style="fill:#EDB984;" d="M330.098,110.66c5.379,2.528,10.458,0.699,10.939,1.096c0.481,0.397-3.344,2.432-6.813,1.763
			C330.755,112.85,330.098,110.66,330.098,110.66z"/>
		<path style="fill:#EDB984;" d="M329.234,112.055c5.064,3.051,11.18,1.928,11.698,2.467c0.511,0.532-4.209,1.748-7.573,0.598
			C330.309,114.078,329.234,112.055,329.234,112.055z"/>
		<path style="fill:#EDB984;" d="M327.79,113.732c5.596,3.124,10.359,2.426,10.647,2.79c0.277,0.349-3.016,1.242-5.992,0.347
			C328.982,115.827,327.79,113.732,327.79,113.732z"/>
	</g>
	<g>
		<path style="fill:#EDB984;" d="M106.224,123.2c-2.731,1.763-6.28,2.641-6.532,3.856c-0.252,1.215,3.105,4.677,5.395,2.229
			c2.289-2.447,4.291-6.716,4.291-6.716L106.224,123.2z"/>
		<path style="fill:#EDB984;" d="M105.562,123.042c-3.313,1.242-9.716,0.321-9.91,1.083c-0.184,0.724,7.283,2.335,8.301,1.839
			C105.01,125.449,106.898,122.541,105.562,123.042z"/>
		<path style="fill:#EDB984;" d="M103.486,123.801c-3.818,4.459-9.132,4.814-9.405,5.37c-0.272,0.556,3.997,0.888,6.848-1.108
			C103.782,126.066,103.486,123.801,103.486,123.801z"/>
		<path style="fill:#EDB984;" d="M104.829,124.733c-3.323,4.81-9.284,6.226-9.532,6.925c-0.245,0.69,4.499-0.083,7.061-2.476
			C104.682,127.011,104.829,124.733,104.829,124.733z"/>
		<path style="fill:#EDB984;" d="M106.809,125.689c-3.772,5.09-8.343,6.353-8.456,6.801c-0.108,0.43,3.218-0.069,5.535-2.075
			C106.586,128.08,106.809,125.689,106.809,125.689z"/>
	</g>
	<g>
		<path style="fill:#473939;" d="M139.573,157.186c-0.385-1.442,0.04-2.797,0.953-3.026c0.916-0.23,1.975,0.761,2.36,2.212
			c0.386,1.45-0.047,2.803-0.965,3.024C141.008,159.616,139.958,158.627,139.573,157.186z"/>
		<path style="fill:#473939;" d="M130.708,158.527c-0.306-1.19,0.074-2.336,0.851-2.56c0.78-0.224,1.662,0.566,1.969,1.763
			c0.306,1.197-0.08,2.342-0.86,2.558C131.89,160.505,131.014,159.716,130.708,158.527z"/>
		<path style="fill:#542D32;" d="M144.692,152.86l0.109-0.341c0.193-0.602-0.163-1.246-0.797-1.438l-5.218-1.583
			c-0.648-0.196-1.333,0.139-1.528,0.75l-0.068,0.211L144.692,152.86z"/>
		<path style="fill:#D27558;" d="M136.148,158.863c0,0,0.227,0.241,0.546,0.63c-0.728,2.405-1.315,6.328,2.21,5.025
			c-0.005,0.099,0.016,0.202,0.002,0.3C133.134,167.909,135.435,160.423,136.148,158.863z"/>
		<path style="fill:#542D32;" d="M132.685,152.42l-0.081-0.166c-0.237-0.485-1.017-1.071-1.399-0.734l-3.156,2.78
			c-0.394,0.347-0.241,1.496-0.001,1.992l0.082,0.169L132.685,152.42z"/>
		<path style="fill:#D27558;" d="M144.285,168.69l0.207-0.308c-0.631-0.424-3.967-1.645-7.634,0.593l0.321,0.525
			C140.286,167.593,143.163,168.211,144.285,168.69z"/>
		<path style="fill:#D27558;" d="M141.801,169.023c-0.096-0.253-0.711-0.253-1.373-0.001c-0.662,0.252-1.122,0.66-1.026,0.913
			c0.096,0.253,0.537-0.204,1.2-0.456C141.264,169.227,141.897,169.276,141.801,169.023z"/>
	</g>
	<g>
		<path style="fill:#5A4949;" d="M306.701,137.808c0.006-1.648-0.761-3.038-1.714-3.105c-0.953-0.067-1.731,1.214-1.737,2.862
			c-0.006,1.648,0.761,3.038,1.714,3.105C305.917,140.737,306.695,139.456,306.701,137.808z"/>
		<path style="fill:#5A4949;" d="M314.963,137.635c-0.114-1.646-0.979-2.975-1.933-2.969c-0.953,0.005-1.634,1.345-1.52,2.991
			c0.114,1.646,0.979,2.976,1.933,2.97C314.397,140.621,315.077,139.282,314.963,137.635z"/>
		<path style="fill:#D27558;" d="M309.613,138.098c1.225,3.992,1.505,6.448-0.048,7.058c-0.97,0.381-2.27-0.008-3.284-0.454
			l-0.033,0.067c0,0,3.06,1.956,4.737,1.433C312.646,145.683,311.739,142.821,309.613,138.098z"/>
		<g>
			<path style="fill:#D27558;" d="M302.235,150.46l0.122-1.472c0.149-0.061,3.713-1.48,7.691,0.9l-0.426,0.584
				C305.973,148.29,302.269,150.446,302.235,150.46z"/>
		</g>
		<path style="fill:#D27558;" d="M307.279,151.592c-0.049,0.456-0.638,0.117-1.365,0.032c-0.727-0.085-1.318,0.116-1.269-0.34
			c0.049-0.456,0.678-0.757,1.406-0.672C306.779,150.697,307.328,151.136,307.279,151.592z"/>
		<rect x="301.659" y="134.225" style="fill:#EDB984;" width="13.931" height="2.994"/>
		<path style="fill:#773725;" d="M306.01,130.235l-6.041,1.382c-0.508,0.116-0.828,0.633-0.715,1.155l0.426,1.969
			c0.113,0.522,0.617,0.852,1.125,0.736l6.041-1.382c0.508-0.116,0.828-0.633,0.715-1.155l-0.426-1.969
			C307.022,130.448,306.518,130.119,306.01,130.235z"/>
		<path style="fill:#773725;" d="M317.689,132.342l-4.945-1.727c-0.416-0.145-0.862,0.106-0.996,0.561l-0.506,1.717
			c-0.134,0.456,0.094,0.943,0.51,1.088l4.945,1.727c0.416,0.145,0.861-0.106,0.996-0.561l0.506-1.717
			C318.333,132.974,318.104,132.487,317.689,132.342z"/>
	</g>
</g>
</svg>
