<?xml version="1.0" encoding="utf-8"?>
<!-- Generator: Adobe Illustrator 27.5.0, SVG Export Plug-In . SVG Version: 6.00 Build 0)  -->
<svg version="1.1" xmlns="http://www.w3.org/2000/svg" xmlns:xlink="http://www.w3.org/1999/xlink" x="0px" y="0px"
	 viewBox="0 0 750 500" style="enable-background:new 0 0 750 500;" xml:space="preserve">
<g id="BACKGROUND">
</g>
<g id="OBJECTS">
	<g>
		<g style="opacity:0.2;">
			<path style="fill:#FDC75E;" d="M51.68,305.073c-11.697-45.911-17.592-98.626,5.373-138.733
				c7.364-12.861,17.325-23.611,28.135-32.848c58.126-49.669,143.993-53.078,205.057-8.141
				c38.367,28.234,67.635,73.357,110.971,90.037c27.687,10.657,58.113,8.22,86.588,0.672c28.475-7.548,55.734-19.989,83.786-29.343
				c38.987-13,84.578-18.765,117.285,8.521c8.34,6.958,15.483,15.93,19.962,26.497c12.486,29.455,2.567,64.213-7.452,94.849
				l-14.633,61.886H77.362L51.68,305.073z"/>
		</g>
		<ellipse style="opacity:0.2;fill:#FDC75E;" cx="385.141" cy="190.825" rx="7.707" ry="9.876"/>
		<ellipse style="opacity:0.2;fill:#FDC75E;" cx="30.09" cy="256.471" rx="7.707" ry="9.876"/>
		<path style="opacity:0.2;fill:#FDC75E;" d="M375.649,171.073c0,2.737-1.732,4.956-3.868,4.956c-2.136,0-3.868-2.219-3.868-4.956
			s1.732-4.956,3.868-4.956C373.918,166.117,375.649,168.336,375.649,171.073z"/>
		<path style="opacity:0.2;fill:#FDC75E;" d="M34.986,233.542c0,2.737-1.732,4.956-3.868,4.956c-2.136,0-3.868-2.219-3.868-4.956
			s1.732-4.956,3.868-4.956C33.254,228.586,34.986,230.805,34.986,233.542z"/>
		<path style="opacity:0.2;fill:#FDC75E;" d="M727.617,267.237c0,2.737-1.732,4.956-3.868,4.956c-2.136,0-3.868-2.219-3.868-4.956
			s1.732-4.956,3.868-4.956C725.886,262.281,727.617,264.5,727.617,267.237z"/>
	</g>
	<g>
		<g>
			<path style="fill:#018790;" d="M331.923,247.186c0,0-37.095-35.402-22.447-46.583S332.159,231.835,331.923,247.186z"/>
			<path style="fill:#018790;" d="M342.906,262.097c0,0-20.521-68.982,5.118-72.395C373.661,186.29,353.891,243.56,342.906,262.097z
				"/>
			<g>
				<path style="fill:#141D32;" d="M351.524,327.251c-1.905-25.399-30.594-110.418-30.883-111.274l0.947-0.32
					c0.29,0.857,29.019,85.996,30.933,111.52L351.524,327.251z"/>
			</g>
			<g>
				<path style="fill:#141D32;" d="M355.411,336.386c-12.331-37.326-13.954-69.021-13.145-89.038
					c0.878-21.705,4.731-34.765,4.77-34.895l0.958,0.287c-0.154,0.514-15.13,52.208,8.366,123.33L355.411,336.386z"/>
			</g>
			<path style="fill:#018790;" d="M350.09,319.487c0,0-13.522-74.05,13.522-74.694C390.657,244.149,363.613,301.457,350.09,319.487z
				"/>
			<path style="fill:#018790;" d="M346.543,313.302c0,0-55.533-50.816-34.378-67.677
				C333.32,228.765,346.417,290.766,346.543,313.302z"/>
			<g>
				<path style="fill:#141D32;" d="M354.743,345.923c-1.902-25.99-32.47-81.656-32.779-82.215l0.876-0.483
					c0.077,0.14,7.827,14.219,15.711,31.343c7.288,15.827,16.186,37.571,17.189,51.284L354.743,345.923z"/>
			</g>
			<g>
				<path style="fill:#141D32;" d="M349.603,354.368c-3.678-16.383-0.5-40.274,2.814-57.432c3.586-18.565,8.097-33.466,8.142-33.615
					l0.957,0.291c-0.045,0.148-4.543,15.008-8.119,33.523c-3.295,17.061-6.458,40.802-2.818,57.014L349.603,354.368z"/>
			</g>
			<path style="fill:#C95940;" d="M327.553,319.048V359c0,6.6,5.4,12,12,12h27.513c6.6,0,12-5.4,12-12v-39.952H327.553z"/>
		</g>
		<g>
			<path style="fill:#018790;" d="M549.091,276.442c0,0-18.711-62.898,4.666-66.01C577.134,207.32,559.107,259.54,549.091,276.442z"
				/>
			<g>
				<path style="fill:#141D32;" d="M560.493,344.179c-11.243-34.034-12.724-62.934-11.985-81.185
					c0.8-19.791,4.314-31.699,4.349-31.817l0.874,0.262c-0.141,0.468-13.796,47.603,7.628,112.454L560.493,344.179z"/>
			</g>
			<path style="fill:#018790;" d="M552.407,323.132c0,0-50.636-46.335-31.347-61.709
				C540.35,246.049,552.292,302.582,552.407,323.132z"/>
			<g>
				<path style="fill:#141D32;" d="M559.884,352.876c-1.734-23.698-29.607-74.455-29.888-74.965l0.799-0.441
					c0.07,0.128,7.136,12.965,14.326,28.579c6.645,14.431,14.758,34.257,15.673,46.761L559.884,352.876z"/>
			</g>
			<path style="fill:#C95940;" d="M529.941,325.795v36.429c0,6.018,4.924,10.942,10.942,10.942h25.087
				c6.018,0,10.942-4.924,10.942-10.942v-36.429H529.941z"/>
		</g>
	</g>
	<g>
		<g>
			<path style="fill:#9DB8EC;" d="M109.384,226.693c-20.607,0-40.231,0.706-48.889,3.036c-20.793,5.598-9.322,47.978-8.038,52.487
				l-4.046-0.098c-0.992-0.221-2.017-0.36-3.072-0.393c-0.175-0.005-0.35-0.008-0.524-0.008
				c-8.688-0.001-15.858,6.783-16.127,15.378c-0.063,1.988,0.267,3.895,0.891,5.67c1.618,11.044,6.152,41.29,9.677,58.06
				c1.278,6.077,4.521,9.512,8.462,11.348l-1.248,0.007l9.29,11.426l280.821-0.717l5.495-9.615c3.182-0.673,5.328-1.46,5.328-1.46
				l-9.907-73.911l0.013-0.154c0.276-8.831-6.733-16.215-15.654-16.494l-36.01-0.873c-2.323-13.188-4.418-25.694-5.199-32.096
				c-2.101-17.226-14.557-19.925-14.557-19.925s-33.981-1.668-65.65-1.668c-13.595,0-26.758,0.307-36.634,1.185
				C151.194,227.386,129.806,226.693,109.384,226.693"/>
			<g>
				<g style="opacity:0.53;">
					<rect x="51.448" y="377.022" style="fill:#141D32;" width="287.349" height="0.914"/>
				</g>
				<g style="opacity:0.36;">
					
						<rect x="140.277" y="338.676" transform="matrix(1 -0.0059 0.0059 1 -2.0005 1.3508)" style="fill:#141D32;" width="174.524" height="0.914"/>
				</g>
				<g style="opacity:0.36;">
					
						<rect x="140.277" y="325.886" transform="matrix(1 -0.0059 0.0059 1 -1.9249 1.3506)" style="fill:#141D32;" width="174.524" height="0.914"/>
				</g>
				<g style="opacity:0.36;">
					<path style="fill:#141D32;" d="M288.75,313.781"/>
				</g>
				<g>
					<g style="opacity:0.36;">
						<path style="fill:#141D32;" d="M143.035,377.314c-0.059-0.703-5.954-70.475-7.307-82.209
							c-1.303-11.298-17.166-10.118-17.323-10.104l-65.964-2.329l0.032-0.913l65.91,2.33c0.116-0.012,16.848-1.265,18.253,10.91
							c1.356,11.748,7.251,81.533,7.31,82.237L143.035,377.314z"/>
					</g>
					<g style="opacity:0.36;">
						
							<rect x="110.829" y="284.298" transform="matrix(0.9946 -0.1034 0.1034 0.9946 -33.5972 13.2799)" style="fill:#141D32;" width="0.913" height="92.77"/>
					</g>
					<g style="opacity:0.36;">
						<g>
							<path style="fill:#141D32;" d="M122.249,312.411c-5.163,0-9.364-4.508-9.364-10.049c0-5.541,4.201-10.049,9.364-10.049
								c5.164,0,9.364,4.508,9.364,10.049C131.613,307.903,127.412,312.411,122.249,312.411z M122.249,293.225
								c-4.66,0-8.451,4.099-8.451,9.136c0,5.037,3.791,9.136,8.451,9.136c4.66,0,8.451-4.099,8.451-9.136
								C130.699,297.324,126.908,293.225,122.249,293.225z"/>
						</g>
						<g>
							<path style="fill:#141D32;" d="M122.507,312.095c-5.163,0-9.364-4.508-9.364-10.049s4.201-10.049,9.364-10.049
								c5.163,0,9.364,4.508,9.364,10.049S127.671,312.095,122.507,312.095z M122.507,292.91c-4.66,0-8.451,4.099-8.451,9.136
								c0,5.037,3.791,9.136,8.451,9.136c4.66,0,8.451-4.099,8.451-9.136C130.958,297.008,127.167,292.91,122.507,292.91z"/>
						</g>
						<g>
							<path style="fill:#141D32;" d="M122.249,309.335c-3.588,0-6.508-3.128-6.508-6.973c0-3.845,2.92-6.973,6.508-6.973
								c3.588,0,6.508,3.128,6.508,6.973C128.756,306.207,125.837,309.335,122.249,309.335z M122.249,296.302
								c-3.085,0-5.594,2.719-5.594,6.06c0,3.341,2.51,6.06,5.594,6.06c3.085,0,5.594-2.718,5.594-6.06
								C127.842,299.02,125.333,296.302,122.249,296.302z"/>
						</g>
					</g>
				</g>
				<g>
					<g style="opacity:0.36;">
						<g>
							<path style="fill:#141D32;" d="M325.303,306.929c-4.791,0-8.689-4.508-8.689-10.049c0-5.541,3.898-10.049,8.689-10.049
								c4.791,0,8.689,4.508,8.689,10.049C333.992,302.421,330.094,306.929,325.303,306.929z M325.303,287.744
								c-4.287,0-7.775,4.099-7.775,9.136c0,5.037,3.489,9.136,7.775,9.136s7.775-4.099,7.775-9.136
								C333.078,291.843,329.59,287.744,325.303,287.744z"/>
						</g>
						<g>
							<path style="fill:#141D32;" d="M325.542,306.613c-4.791,0-8.689-4.508-8.689-10.049s3.898-10.049,8.689-10.049
								c4.791,0,8.689,4.508,8.689,10.049S330.333,306.613,325.542,306.613z M325.542,287.428c-4.287,0-7.775,4.099-7.775,9.136
								s3.488,9.136,7.775,9.136c4.287,0,7.775-4.099,7.775-9.136S329.829,287.428,325.542,287.428z"/>
						</g>
						<g>
							<path style="fill:#141D32;" d="M325.303,303.853c-3.336,0-6.049-3.128-6.049-6.973s2.713-6.973,6.049-6.973
								c3.336,0,6.049,3.128,6.049,6.973S328.639,303.853,325.303,303.853z M325.303,290.82c-2.832,0-5.135,2.718-5.135,6.06
								c0,3.341,2.304,6.06,5.135,6.06c2.832,0,5.135-2.719,5.135-6.06C330.438,293.539,328.135,290.82,325.303,290.82z"/>
						</g>
					</g>
					<g style="opacity:0.36;">
						<path style="fill:#141D32;" d="M320.729,376.417l-6.852-55.729c-5.579-20.971-3.434-30.959-0.65-35.635
							c2.081-3.494,4.546-4.123,4.65-4.148l0.214,0.888l-0.107-0.444l0.11,0.443c-0.022,0.006-2.241,0.598-4.117,3.789
							c-2.668,4.536-4.695,14.28,0.795,34.935l6.863,55.791L320.729,376.417z"/>
					</g>
				</g>
				<g style="opacity:0.36;">
					<path style="fill:#141D32;" d="M279.607,314.238H138.465v-0.914H278.19c-8.692-19.757,0.958-33.081,1.057-33.215l0.733,0.546
						c-0.097,0.131-9.628,13.337-0.669,32.936L279.607,314.238z"/>
				</g>
				<g style="opacity:0.36;">
					
						<rect x="295.609" y="300.135" transform="matrix(0.3067 -0.9518 0.9518 0.3067 -99.146 503.5211)" style="fill:#141D32;" width="0.913" height="39.368"/>
				</g>
				<g style="opacity:0.36;">
					<path style="fill:#141D32;" d="M200.587,313.371l-0.909-0.093c3.601-35.558-17.114-84.703-17.324-85.195l0.84-0.358
						C183.405,228.219,204.211,277.581,200.587,313.371z"/>
				</g>
			</g>
		</g>
		<g>
			<path style="fill:#9DB8EC;" d="M659.879,226.847c-25.325,0-53.32,1.855-53.32,1.855s-9.747,2.734-11.356,19.966
				c-0.597,6.404-2.21,18.916-4.001,32.111l-28.194,0.973c-6.985,0.304-12.458,7.708-12.223,16.538l0.011,0.153l-7.462,72.634
				l-0.428-0.003l0.324,1.014l-0.03,0.293c0,0,0.053,0.024,0.145,0.064l3.51,10.998l155.577,0.163l5.121-11.443l-0.972-0.007
				c3.08-1.848,5.609-5.291,6.596-11.368c2.725-16.78,6.208-47.038,7.451-58.087c0.484-1.777,0.738-3.685,0.685-5.672
				c-0.228-8.58-5.838-15.333-12.625-15.333c-0.148,0-0.298,0.003-0.447,0.01c-0.825,0.036-1.628,0.178-2.404,0.401l-3.168,0.109
				c0.995-4.512,9.885-46.924-6.408-52.464C689.744,227.535,675.308,226.847,659.879,226.847"/>
			<g>
				<g>
					<g style="opacity:0.36;">
						<path style="fill:#141D32;" d="M621.554,377.532c0.059-0.703,5.953-70.475,7.307-82.209
							c1.303-11.298,17.166-10.118,17.323-10.104l65.964-2.329l-0.032-0.913l-65.909,2.33c-0.117-0.012-16.848-1.265-18.253,10.91
							c-1.356,11.748-7.251,81.533-7.31,82.237L621.554,377.532z"/>
					</g>
					<g style="opacity:0.36;">
						
							<rect x="606.918" y="330.444" transform="matrix(0.1034 -0.9946 0.9946 0.1034 256.6223 946.4849)" style="fill:#141D32;" width="92.77" height="0.913"/>
					</g>
					<g style="opacity:0.36;">
						<g>
							<path style="fill:#141D32;" d="M632.975,302.579c0-5.541,4.201-10.049,9.364-10.049s9.364,4.508,9.364,10.049
								c0,5.541-4.201,10.049-9.364,10.049S632.975,308.121,632.975,302.579z M633.889,302.579c0,5.037,3.791,9.136,8.451,9.136
								c4.66,0,8.451-4.099,8.451-9.136s-3.791-9.136-8.451-9.136C637.68,293.443,633.889,297.542,633.889,302.579z"/>
						</g>
						<g>
							<path style="fill:#141D32;" d="M632.717,302.263c0-5.541,4.201-10.049,9.364-10.049c5.163,0,9.364,4.508,9.364,10.049
								s-4.201,10.049-9.364,10.049C636.917,312.313,632.717,307.805,632.717,302.263z M633.63,302.263
								c0,5.037,3.791,9.136,8.451,9.136c4.66,0,8.451-4.099,8.451-9.136c0-5.037-3.791-9.136-8.451-9.136
								C637.421,293.128,633.63,297.226,633.63,302.263z"/>
						</g>
						<g>
							<path style="fill:#141D32;" d="M635.832,302.579c0-3.845,2.919-6.973,6.508-6.973c3.588,0,6.508,3.128,6.508,6.973
								s-2.92,6.973-6.508,6.973C638.751,309.552,635.832,306.424,635.832,302.579z M636.746,302.579c0,3.341,2.509,6.06,5.594,6.06
								c3.085,0,5.594-2.718,5.594-6.06c0-3.341-2.51-6.06-5.594-6.06C639.255,296.52,636.746,299.238,636.746,302.579z"/>
						</g>
					</g>
				</g>
				<g>
					<g style="opacity:0.36;">
						<g>
							<path style="fill:#141D32;" d="M553.337,297.779c0-5.541,3.898-10.049,8.689-10.049c4.791,0,8.689,4.508,8.689,10.049
								s-3.898,10.049-8.689,10.049C557.235,307.828,553.337,303.32,553.337,297.779z M554.251,297.779
								c0,5.037,3.488,9.136,7.775,9.136c4.287,0,7.775-4.099,7.775-9.136c0-5.037-3.488-9.136-7.775-9.136
								C557.739,288.643,554.251,292.742,554.251,297.779z"/>
						</g>
						<g>
							<path style="fill:#141D32;" d="M553.098,297.463c0-5.541,3.898-10.049,8.689-10.049c4.791,0,8.689,4.508,8.689,10.049
								s-3.898,10.049-8.689,10.049C556.996,307.513,553.098,303.004,553.098,297.463z M554.012,297.463
								c0,5.037,3.488,9.136,7.775,9.136c4.287,0,7.775-4.099,7.775-9.136s-3.488-9.136-7.775-9.136
								C557.5,288.327,554.012,292.426,554.012,297.463z"/>
						</g>
						<g>
							<path style="fill:#141D32;" d="M555.977,297.779c0-3.845,2.713-6.973,6.049-6.973c3.336,0,6.049,3.128,6.049,6.973
								c0,3.845-2.713,6.973-6.049,6.973C558.69,304.752,555.977,301.624,555.977,297.779z M556.891,297.779
								c0,3.341,2.304,6.06,5.135,6.06c2.832,0,5.135-2.719,5.135-6.06s-2.304-6.06-5.135-6.06
								C559.194,291.719,556.891,294.438,556.891,297.779z"/>
						</g>
					</g>
					<g style="opacity:0.36;">
						<path style="fill:#141D32;" d="M566.6,377.316l6.852-55.729c5.579-20.971,3.434-30.959,0.649-35.635
							c-2.081-3.494-4.546-4.123-4.65-4.148l-0.214,0.888l0.107-0.444l-0.11,0.443c0.022,0.006,2.241,0.598,4.117,3.789
							c2.668,4.536,4.695,14.28-0.795,34.934l-6.864,55.791L566.6,377.316z"/>
					</g>
				</g>
				<g style="opacity:0.34;">
					<polygon style="fill:#031946;" points="704.807,377.935 704.805,377.022 545.614,377.573 545.616,378.486 					"/>
				</g>
				<g style="opacity:0.36;">
					<g>
						<polygon style="fill:#141D32;" points="623.94,340.297 571.267,338.701 571.295,337.787 623.968,339.384 						"/>
					</g>
					<g>
						
							<rect x="598.49" y="300.722" transform="matrix(0.03 -0.9996 0.9996 0.03 253.7981 916.1996)" style="fill:#141D32;" width="0.914" height="53.23"/>
					</g>
					<g>
						<path style="fill:#141D32;" d="M596.186,310.729l-0.862-0.303c3.517-10.009,2.128-17.441,0.344-21.913
							c-1.935-4.848-4.739-7.367-4.768-7.392l0.605-0.685C591.622,280.539,603.124,290.98,596.186,310.729z"/>
					</g>
				</g>
			</g>
		</g>
		<g>
			<path style="fill:#9DB8EC;" d="M500.478,232.279H381.872c-6.146,0-11.176,5.029-11.176,11.176v38.016
				c-6.453,0.115-11.699,5.42-11.699,11.9v78.325c0,6.551,5.36,11.91,11.911,11.91h5.025c1.042,0,2.049-0.149,3.015-0.403
				c0.935,0.255,1.912,0.403,2.924,0.403h118.606c1.051,0,2.065-0.157,3.031-0.431c0.996,0.272,2.039,0.431,3.12,0.431h5.025
				c6.551,0,11.91-5.359,11.91-11.91v-78.325c0-6.551-5.359-11.911-11.91-11.911v-38.005
				C511.655,237.308,506.626,232.279,500.478,232.279"/>
			<g style="opacity:0.36;">
				<g>
					<path style="fill:#141D32;" d="M502.891,300.444c0-5.541,3.898-10.049,8.689-10.049c4.791,0,8.689,4.508,8.689,10.049
						s-3.898,10.049-8.689,10.049C506.789,310.493,502.891,305.985,502.891,300.444z M503.805,300.444
						c0,5.037,3.488,9.136,7.775,9.136c4.287,0,7.775-4.099,7.775-9.136s-3.488-9.136-7.775-9.136
						C507.293,291.308,503.805,295.406,503.805,300.444z"/>
				</g>
				<g>
					<path style="fill:#141D32;" d="M502.652,300.128c0-5.541,3.898-10.049,8.689-10.049s8.689,4.508,8.689,10.049
						c0,5.541-3.898,10.049-8.689,10.049S502.652,305.669,502.652,300.128z M503.566,300.128c0,5.037,3.488,9.136,7.775,9.136
						c4.287,0,7.775-4.099,7.775-9.136s-3.489-9.136-7.775-9.136C507.054,290.992,503.566,295.091,503.566,300.128z"/>
				</g>
				<g>
					<path style="fill:#141D32;" d="M505.531,300.444c0-3.845,2.713-6.973,6.049-6.973c3.336,0,6.049,3.128,6.049,6.973
						s-2.713,6.973-6.049,6.973C508.244,307.417,505.531,304.289,505.531,300.444z M506.445,300.444c0,3.341,2.304,6.06,5.135,6.06
						c2.832,0,5.135-2.719,5.135-6.06c0-3.341-2.304-6.06-5.135-6.06C508.748,294.384,506.445,297.102,506.445,300.444z"/>
				</g>
			</g>
			<g style="opacity:0.36;">
				<g>
					<path style="fill:#141D32;" d="M363.387,300.444c0-5.541,3.898-10.049,8.689-10.049c4.791,0,8.689,4.508,8.689,10.049
						s-3.898,10.049-8.689,10.049C367.285,310.493,363.387,305.985,363.387,300.444z M364.3,300.444
						c0,5.037,3.488,9.136,7.775,9.136s7.775-4.099,7.775-9.136s-3.488-9.136-7.775-9.136S364.3,295.406,364.3,300.444z"/>
				</g>
				<g>
					<path style="fill:#141D32;" d="M363.148,300.128c0-5.541,3.898-10.049,8.689-10.049c4.791,0,8.689,4.508,8.689,10.049
						c0,5.541-3.898,10.049-8.689,10.049C367.046,310.177,363.148,305.669,363.148,300.128z M364.061,300.128
						c0,5.037,3.488,9.136,7.775,9.136c4.287,0,7.775-4.099,7.775-9.136s-3.488-9.136-7.775-9.136
						C367.55,290.992,364.061,295.091,364.061,300.128z"/>
				</g>
				<g>
					<path style="fill:#141D32;" d="M366.027,300.444c0-3.845,2.713-6.973,6.049-6.973c3.336,0,6.049,3.128,6.049,6.973
						s-2.713,6.973-6.049,6.973C368.74,307.417,366.027,304.289,366.027,300.444z M366.94,300.444c0,3.341,2.304,6.06,5.135,6.06
						c2.832,0,5.135-2.719,5.135-6.06c0-3.341-2.304-6.06-5.135-6.06C369.244,294.384,366.94,297.102,366.94,300.444z"/>
				</g>
			</g>
			<path style="opacity:0.36;fill:#141D32;" d="M496.958,379.169c0.044-5.34,0.441-55.672-0.004-75.689
				c-0.457-20.563,13.745-21.522,14.349-21.553l-0.045-0.913c-0.157,0.008-15.695,1.008-15.218,22.485
				c0.117,5.285,0.176,12.686,0.198,20.814h-110.5c0.022-8.128,0.081-15.529,0.199-20.814c0.477-21.477-15.062-22.478-15.219-22.485
				l-0.045,0.913c0.605,0.031,14.807,0.99,14.35,21.553c-0.445,20.016-0.048,70.349-0.004,75.689h-22.712v0.914h159.839v-0.914
				H496.958z M496.241,325.227c0.008,3.396,0.01,6.906,0.007,10.436H385.729c-0.003-3.529-0.001-7.04,0.007-10.436H496.241z
				 M385.73,336.576h110.517c-0.02,19.556-0.177,39.372-0.203,42.592H385.933C385.907,375.949,385.749,356.133,385.73,336.576z"/>
		</g>
	</g>
	<g>
		<path style="fill:#141D32;" d="M639.825,193.3c0,0,12.772,8.193,11.085,22.411c-1.687,14.218-1.205,21.206,4.82,22.17
			c6.025,0.964,0.482,21.929-17.592,19.76c-18.074-2.169-39.421-10.406-30.675-54.002C607.464,203.64,620.788,187.998,639.825,193.3
			z"/>
		<g>
			<path style="fill:#C95940;" d="M535.38,377.187c0,0-2.573,12.196-5.577,12.993c-3.004,0.797-35.059-7.168-28.74-10.834
				c6.319-3.665,21.049,2.418,26.645-9.479C527.708,369.867,538.547,372.453,535.38,377.187z"/>
			<path style="fill:#141D32;" d="M501.063,379.346c1.871-1.085,4.481-1.315,7.37-1.411c3.024,3.759,9.529,4.231,13.959,4.195
				c3.984-0.033,8.086-0.273,12.012-1.035c-1.018,3.642-2.726,8.586-4.602,9.084C526.799,390.976,494.744,383.012,501.063,379.346z"
				/>
		</g>
		<path style="fill:#C95940;" d="M636.887,231.234c0,0-5.025,13.362-4.444,15.628s-15.018,2.644-18.867-0.594l3.467-17.551
			C617.044,228.716,635.248,222.961,636.887,231.234z"/>
		<path style="opacity:0.73;fill:#FFBF9A;" d="M634.614,237.691c1.132-3.422,2.273-6.457,2.273-6.457
			c-1.639-8.273-19.843-2.517-19.843-2.517l-2.939,14.877C621.537,244.953,628.754,242.286,634.614,237.691z"/>
		<path style="fill:#141D32;" d="M627.634,307.944c0,0-3.893,28.509-60.18,20.034c0,0-14.084-3.196-11.081-11.556l51.714-14.004
			C608.087,302.417,631.507,301.41,627.634,307.944z"/>
		<path style="fill:#141D32;" d="M571.502,321.927c0,0,2.901,13.326-35.613,54.357l-10.157-3.444l31.151-57.322
			C556.883,315.518,570.908,314.465,571.502,321.927z"/>
		<g>
			<path style="fill:#C95940;" d="M569.326,383.972c0,0,3.258,12.031,0.945,14.107c-2.312,2.076-34.481,9.569-30.522,3.429
				c3.96-6.139,19.844-7.424,19.414-20.565C559.164,380.944,569.992,378.315,569.326,383.972z"/>
			<path style="fill:#141D32;" d="M539.75,401.509c1.172-1.818,3.392-3.21,5.921-4.61c4.403,1.972,10.41-0.568,14.339-2.616
				c3.533-1.842,7.076-3.922,10.226-6.387c0.751,3.707,1.479,8.886,0.035,10.183C567.959,400.155,535.79,407.648,539.75,401.509z"/>
		</g>
		<path style="fill:#141D32;" d="M608.528,304.716c0,0-1.071,18.525-41.687,17.156c0,0-11.11,0.339-9.475-6.353l36.883-16.977
			C594.248,298.541,610.893,299.347,608.528,304.716z"/>
		<path style="fill:#141D32;" d="M576.307,319.364c0,0,8.647,10.547-6.981,64.608l-10.612,1.555l1.658-65.218
			C560.372,320.309,572.382,312.99,576.307,319.364z"/>
		<path style="fill:#1E5AD0;" d="M632.837,245.111c0,0,7.856,5.672,9.57,7.647c1.714,1.975-14.499,31.971-14.839,36.767
			c-0.34,4.796,3.356,15.439-0.807,16.627s-46.082-1.616-42.603-3.447c8.622-4.538,20.724-57.112,20.724-57.112l8.877-1.908
			C613.76,243.685,623.431,247.04,632.837,245.111z"/>
		<path style="opacity:0.28;fill:#141D32;" d="M631.913,278.378c-0.718,0.612-1.463,1.208-2.221,1.794
			c-10.758,14.635-25.392,27.039-44.054,21.327c-0.502,0.539-0.996,0.953-1.479,1.207c-3.479,1.831,38.441,4.635,42.603,3.447
			c4.162-1.188,0.467-11.831,0.807-16.627C627.681,287.935,629.542,283.569,631.913,278.378z"/>
		<path style="fill:#C95940;" d="M620.043,304.008c0.263,0.031,0.404,0.1,0.404,0.1l0.225-0.148
			c1.283,0.382,2.628,1.007,3.364,2.072c0.719,1.04,0.584,2.018,0.164,3.009l-0.032,0.014l-4.328,5.656
			c-0.641,1.047-2.351,3.833-2.579,4.082c-0.281,0.307-0.714,0.144-0.714,0.144c-0.931-0.379,1.478-3.986,1.818-4.487
			c-0.094-0.039-0.19-0.082-0.287-0.127c-1.098,1.646-3.196,4.776-3.482,5.083c-0.389,0.419-0.873,0.205-0.873,0.205
			c-1.023-0.49,2.375-5.271,2.94-6.053c-0.154-0.093-0.307-0.188-0.459-0.285c-1.297,1.684-4.108,5.318-4.459,5.659
			c-0.458,0.445-0.925,0.195-0.925,0.195c-1.069-0.62,3.963-6.628,3.963-6.628c0.035-0.04,0.069-0.077,0.104-0.113
			c-0.162-0.115-0.318-0.227-0.464-0.334c-1.327,1.399-4.063,4.271-4.405,4.532c-0.455,0.347-0.895,0.054-0.895,0.054
			c-1.007-0.716,4.023-5.558,4.023-5.558l1.935-3.629c-0.261-0.219-0.726-0.269-1.528,0.071c-1.556,0.659-1.758,0.386-1.758,0.386
			c-0.859-1.336,1.855-2.186,4.073-3.374C617.53,303.644,619.274,303.85,620.043,304.008z"/>
		<path style="fill:#C95940;" d="M566.983,278.148c0.182,0.192,0.247,0.335,0.247,0.335l0.268,0.03
			c0.743,1.113,1.379,2.453,1.266,3.743c-0.111,1.259-0.839,1.926-1.796,2.421l-0.034-0.009l-6.942,1.59
			c-1.162,0.397-4.257,1.448-4.591,1.494c-0.413,0.057-0.642-0.346-0.642-0.346c-0.474-0.886,3.683-2.124,4.265-2.292
			c-0.047-0.09-0.094-0.184-0.14-0.281c-1.896,0.566-5.509,1.634-5.925,1.688c-0.567,0.074-0.803-0.4-0.803-0.4
			c-0.474-1.03,5.193-2.54,6.128-2.781c-0.059-0.17-0.116-0.341-0.172-0.513c-2.074,0.467-6.558,1.469-7.045,1.507
			c-0.636,0.05-0.836-0.441-0.836-0.441c-0.427-1.16,7.282-2.57,7.282-2.57c0.052-0.008,0.103-0.015,0.152-0.02
			c-0.052-0.192-0.1-0.378-0.144-0.553c-1.915,0.229-5.854,0.693-6.284,0.675c-0.571-0.024-0.723-0.531-0.723-0.531
			c-0.318-1.194,6.645-1.709,6.645-1.709l3.807-1.557c-0.061-0.336-0.387-0.67-1.221-0.921c-1.618-0.486-1.599-0.826-1.599-0.826
			c0.192-1.577,2.823-0.498,5.289,0.004C565.281,276.263,566.493,277.535,566.983,278.148z"/>
		<path style="fill:#C95940;" d="M606.344,209.381c0.008-0.225-0.003-0.447,0.013-0.673c0.123-1.736,0.503-3.39,1.068-4.954
			c0.014-0.062,0.023-0.104,0.023-0.104s0.013-0.008,0.016-0.009c2.86-7.752,10.745-13.03,19.632-12.401
			c10.717,0.759,18.808,9.81,18.071,20.217c-0.319,4.511-2.249,8.533-5.202,11.584c-2.021,5.082-6.578,14.642-12.624,15.77
			c0,0-17.951,2.637-21.239-6.123C603.926,226.891,605.22,216.052,606.344,209.381z"/>
		<g>
			<path style="fill:#2E0704;" d="M611.676,213.691c-0.176,1.09-0.781,1.899-1.352,1.807c-0.571-0.092-0.892-1.05-0.716-2.14
				c0.176-1.09,0.781-1.899,1.352-1.807C611.531,211.642,611.851,212.6,611.676,213.691z"/>
			<path style="fill:#2E0704;" d="M624.603,216.641c-0.176,1.09-0.781,1.899-1.352,1.807c-0.571-0.092-0.891-1.05-0.716-2.14
				c0.176-1.09,0.781-1.899,1.352-1.807C624.458,214.593,624.779,215.551,624.603,216.641z"/>
			<path style="fill:#2E0704;" d="M607.815,208.922c0,0,4.446-0.634,5.327-0.106c0,0,0.935-0.813,0.526-1.265
				C613.258,207.099,608.806,206.768,607.815,208.922z"/>
			<path style="fill:#2E0704;" d="M630.899,211.677c0,0-5.857-2.294-7.266-2.135c0,0-0.972-1.121-0.237-1.388
				C624.13,207.887,630.363,209.277,630.899,211.677z"/>
			<path style="fill:#141D32;" d="M614.322,214.02c-0.632,1.747-1.482,3.343-2.295,4.939c-0.402,0.777-0.851,1.62-1.056,2.326
				c0.018,0.056-0.046,0.053-0.005,0.152c0.024,0.085,0.069,0.165,0.106,0.252c0.09,0.168,0.217,0.328,0.364,0.479
				c0.291,0.31,0.661,0.57,1.056,0.814c-0.468-0.036-0.926-0.182-1.356-0.426c-0.212-0.128-0.414-0.285-0.595-0.483
				c-0.171-0.196-0.335-0.434-0.348-0.85c0.114-1.091,0.546-1.877,0.945-2.721c0.432-0.815,0.902-1.602,1.432-2.35
				C613.096,215.402,613.661,214.678,614.322,214.02z"/>
		</g>
		<path style="fill:#141D32;" d="M608.676,225.505c1.353,0.512,2.574,1.096,3.844,1.478c0.628,0.195,1.263,0.361,1.907,0.417
			c0.647,0.052,1.294,0.012,2.012-0.152c-0.505,0.529-1.244,0.843-1.997,0.933c-0.761,0.105-1.513-0.041-2.221-0.243
			c-0.706-0.225-1.366-0.548-1.962-0.96C609.663,226.57,609.109,226.096,608.676,225.505z"/>
		<g>
			<path style="fill:#C95940;" d="M640.27,221.229c0,0,3.835-3.343,4.702,0.427c0.867,3.77-4.485,11.907-7.963,9.73
				C633.532,229.209,640.27,221.229,640.27,221.229z"/>
			<path style="opacity:0.73;fill:#FFBF9A;" d="M640.394,223.436c0,0,1.993-1.737,2.444,0.222c0.451,1.959-2.331,6.188-4.138,5.056
				C636.892,227.583,640.394,223.436,640.394,223.436z"/>
		</g>
		<path style="fill:#141D32;" d="M618.86,194.746c0,0,4.579,18.074,11.567,21.688l-1.687-4.82c0,0,3.133,6.266,5.061,7.711
			l0.482-4.82c0,0,2.169,2.41,1.687,4.579c-0.482,2.169-2.651,6.025-2.41,8.916c0,0,3.615-8.434,7.229-7.711
			c3.615,0.723,4.82,3.374,2.41,7.229c0,0,11.808-21.206-3.374-34.219c0,0-10.844-6.747-20.483-1.928L618.86,194.746z"/>
		<path style="fill:#141D32;" d="M621.752,197.396c0,0-7.711,5.543-9.88,6.025c-2.169,0.482,2.169-3.615,2.169-3.615
			s-7.2,8.065-7.697,9.575c-0.497,1.51-2.183-17.286,15.89-18.973L621.752,197.396z"/>
		<path style="fill:#1E5AD0;" d="M587.366,308.757l-7.412,1.908c-2.472,0.623-4.942,1.255-7.403,1.917
			c-2.456,0.678-4.924,1.307-7.355,2.045c-1.214,0.367-2.427,0.749-3.591,1.202c-0.571,0.218-1.182,0.484-1.579,0.77
			c-0.065,0.072-0.071,0.03-0.103,0.158c-0.032,0.071-0.049,0.263-0.075,0.388c-0.037,0.298-0.07,0.604-0.089,0.917
			c-0.324,5.036-0.196,10.164-0.224,15.254l0.013,7.65l-0.038,7.655c-0.363-5.093-0.582-10.191-0.744-15.293
			c-0.099-2.551-0.114-5.103-0.138-7.657c-0.005-2.557-0.028-5.103,0.135-7.687c0.023-0.323,0.062-0.651,0.108-0.985
			c0.042-0.186,0.04-0.318,0.119-0.547c0.027-0.192,0.247-0.481,0.422-0.612c0.645-0.451,1.235-0.662,1.85-0.901
			c1.219-0.457,2.446-0.826,3.677-1.183c2.464-0.701,4.934-1.353,7.426-1.917C577.34,310.683,582.337,309.638,587.366,308.757z"/>
		<path style="fill:#1E5AD0;" d="M642.407,252.758c0,0,12.198,25.741,6.915,30.544c-5.283,4.803-14.409-7.685-16.33-15.369
			C631.072,260.248,633.571,246.228,642.407,252.758z"/>
		<path style="fill:#1E5AD0;" d="M642.118,276.097c0,0-9.606-1.441-23.054,27.376l5.283,5.283l24.975-25.455
			C649.323,283.302,646.441,271.294,642.118,276.097z"/>
		<path style="fill:#1E5AD0;" d="M604.883,245.593c0,0-7.431,0.247-14.155,24.741c0,0-22.573,4.803-24.014,5.283
			c-1.441,0.48,0,10.086,0,10.086s21.133-2.882,24.975-3.842c3.842-0.961,12.968-6.724,12.968-6.724S616.156,252.55,604.883,245.593
			z"/>
		<polygon style="opacity:0.52;fill:#FFFFFF;" points="616.663,277.538 610.557,272.372 602.839,274.473 605.865,267.069 
			601.482,260.378 609.459,260.968 614.468,254.732 616.371,262.501 623.85,265.337 617.05,269.549 		"/>
	</g>
	<g>
		<g>
			<path style="fill:#141D32;" d="M150.784,186.488c0,0-19.292,0-22.575,20.933c-3.284,20.933-7.388,27.911-7.388,27.911
				s4.925,2.873,8.62,2.052c3.694-0.821,7.388-1.642,9.03,0c1.642,1.642,10.672,2.463,12.314,1.642
				c1.642-0.821,17.65-2.052,20.523-1.642c2.873,0.41,6.978-1.642,6.978-1.642S182.389,187.719,150.784,186.488z"/>
			<g>
				<path style="fill:#FFBF9A;" d="M199.983,387.027c0,0-2.708,12.167-0.304,14.136c2.404,1.969,34.88,7.992,30.646,2.039
					c-4.235-5.953-20.161-6.515-20.328-19.662C209.997,383.54,199.06,381.406,199.983,387.027z"/>
				<path style="fill:#141D32;" d="M230.325,403.202c-1.253-1.762-3.534-3.052-6.125-4.336c-4.309,2.17-10.426-0.094-14.443-1.962
					c-3.613-1.679-7.247-3.597-10.505-5.915c-0.581,3.737-1.074,8.944,0.428,10.174C202.083,403.132,234.56,409.155,230.325,403.202
					z"/>
			</g>
			<path style="fill:#FFBF9A;" d="M173.929,209.461c0.031-0.223,0.079-0.44,0.102-0.665c0.174-1.731,0.081-3.426-0.211-5.064
				c-0.003-0.063-0.005-0.107-0.005-0.107s-0.012-0.01-0.014-0.012c-1.501-8.125-8.374-14.667-17.239-15.557
				c-10.69-1.074-20.202,6.47-21.245,16.851c-0.452,4.5,0.766,8.791,3.157,12.299c1.128,5.352,3.994,15.547,9.76,17.687
				c0,0,17.242,5.65,21.971-2.423C173.334,227.127,173.902,216.226,173.929,209.461z"/>
			<path style="fill:#FFBF9A;" d="M140.115,225.804c0,0,2.68,14.022,1.722,16.156c-0.958,2.134,14.35,5.159,18.693,2.621
				l-0.434-17.885C160.097,226.696,143.136,217.93,140.115,225.804z"/>
			<path style="opacity:0.73;fill:#FFBF9A;" d="M151.388,245.324c3.638,0.404,7.337,0.312,9.142-0.743l-0.198-8.145
				c-2.915-0.202-5.788-1.015-8.598-2.672c-0.721-0.426-1.395-0.897-2.046-1.388C150.128,236.718,150.669,241.036,151.388,245.324z"
				/>
			<path style="fill:#FFBF9A;" d="M137.876,213.906c0,0-4.9-4.41-6.101,0.456c-1.201,4.866,5.565,15.519,10.115,12.77
				C146.44,224.384,137.876,213.906,137.876,213.906z"/>
			<path style="fill:#FFBF9A;" d="M137.696,216.4c0,0-2.845-2.561-3.543,0.265c-0.697,2.825,3.231,9.011,5.873,7.415
				C142.669,222.484,137.696,216.4,137.696,216.4z"/>
			<path style="fill:#141D32;" d="M136.613,303.098c0,0-1.382,23.932,55.452,27.078c0,0,15.436,1.777,14.195-7.019l-48.782-26.269
				C157.478,296.889,134.149,295.914,136.613,303.098z"/>
			<path style="fill:#141D32;" d="M190.074,322.803c0,0-8.159,10.929,9.909,64.224l10.672,1.071l-4.62-65.075
				C206.035,323.023,193.704,316.257,190.074,322.803z"/>
			<g>
				<path style="fill:#FFBF9A;" d="M220.324,382.959c0,0-2.708,12.167-0.303,14.136c2.404,1.969,34.88,7.992,30.646,2.039
					c-4.234-5.953-20.161-6.515-20.328-19.662C230.338,379.472,219.401,377.338,220.324,382.959z"/>
				<path style="fill:#141D32;" d="M250.666,399.134c-1.253-1.762-3.534-3.052-6.125-4.336c-4.309,2.17-10.426-0.094-14.443-1.962
					c-3.613-1.679-7.247-3.597-10.505-5.915c-0.581,3.737-1.074,8.944,0.428,10.174
					C222.424,399.064,254.901,405.087,250.666,399.134z"/>
			</g>
			<path style="fill:#141D32;" d="M156.954,299.03c0,0-1.382,23.932,55.452,27.078c0,0,15.436,1.777,14.195-7.019l-48.783-26.269
				C177.819,292.821,154.49,291.846,156.954,299.03z"/>
			<path style="fill:#141D32;" d="M210.415,318.735c0,0-8.159,10.929,9.909,64.224l10.672,1.071l-4.62-65.075
				C226.376,318.955,214.045,312.189,210.415,318.735z"/>
			<path style="fill:#FFBF9A;" d="M169.261,256.697c0,0,14.814,26.665,24.887,21.925c0,0,6.518-6.518-12.444-27.258
				C181.705,251.364,169.854,246.624,169.261,256.697z"/>
			<path style="fill:#E44D77;" d="M161.523,241.871c0,0,7.424-5.834,21.657,11.103l-14.117,13.149
				C169.063,266.123,153.597,250.398,161.523,241.871z"/>
			<path style="fill:#FFBF9A;" d="M192.733,279.607c0,0,12.9-5.415,26.832-24.909l-3.096-6.498l-26.832,18.411
				C189.637,266.611,183.446,280.148,192.733,279.607z"/>
			<path style="fill:#E44D77;" d="M176.008,274.83c0.507-0.486,1.034-1.191,1.576-2.147c6.883-12.128-6.228-21.306-6.228-21.306
				c-0.974,1.039-7.867-10.161-7.867-10.161l-2.701,0.79c0,0-10.011,3.455-18.952-0.045c0,0-8.796,2.462-10.821,4.117
				c-2.025,1.655,8.854,33.97,8.373,38.754c-0.48,4.784-5.931,14.644-2.031,16.522c3.9,1.879,40.272-3.995,43.475-6.275
				C182.127,294.157,179.545,285.191,176.008,274.83z"/>
			<path style="opacity:0.19;fill:#FFFFFF;" d="M155.947,254.911c4.449,0.105,7.416-2.895,7.739-7.378
				c0.148-2.058-0.742-4.016-1.201-6.024l-1.696,0.496c0,0-10.011,3.455-18.952-0.045c0,0-3.579,1.003-6.698,2.159
				C140.954,249.125,148.368,254.732,155.947,254.911z"/>
			<path style="opacity:0.43;fill:#E44D77;" d="M177.335,278.794c-4.979,8.076-15.586,11.601-24.806,8.807
				c-7.824-2.371-12.756-8.684-15.906-15.926c1.639,6.141,2.939,11.434,2.766,13.156c-0.48,4.784-5.931,14.644-2.031,16.522
				c3.9,1.879,40.272-3.995,43.475-6.275C181.958,294.277,180.151,287.39,177.335,278.794z"/>
			<g style="opacity:0.51;">
				<path style="fill:#141D32;" d="M152.622,246.115c-6.86,0-13.43-2.299-13.884-2.462l0.336-0.941
					c0.18,0.064,18.124,6.342,25.352-1.827l0.749,0.662C162.072,245.055,157.28,246.115,152.622,246.115z"/>
			</g>
			<g style="opacity:0.51;">
				<path style="fill:#141D32;" d="M177.419,257.687c-0.213-1.279-4.005-4.296-6.345-5.898l0.564-0.825
					c0.656,0.448,6.414,4.442,6.767,6.559L177.419,257.687z"/>
			</g>
			<g style="opacity:0.51;">
				<path style="fill:#141D32;" d="M161.168,275.706l-0.6-0.8c0.226-0.169,5.584-4.114,10.09-0.995l-0.569,0.822
					C166.177,272.024,161.217,275.668,161.168,275.706z"/>
			</g>
			<g style="opacity:0.6;">
				<path style="fill:#1E5AD0;" d="M206.282,325.286l-0.992-0.124c0.004-0.032,0.386-3.204-0.389-5.526
					c-0.489-1.466-10.802-6.863-20.257-11.197l0.417-0.908c3.323,1.522,19.942,9.249,20.789,11.789
					C206.697,321.859,206.299,325.147,206.282,325.286z"/>
			</g>
			<g style="opacity:0.6;">
				<path style="fill:#1E5AD0;" d="M188.69,329.806l-0.287-0.957c1.108-0.333,4.19-1.401,5.126-2.338l0.707,0.707
					C192.93,328.524,188.863,329.754,188.69,329.806z"/>
			</g>
			<g style="opacity:0.6;">
				
					<rect x="199.215" y="383.229" transform="matrix(0.9994 -0.0352 0.0352 0.9994 -13.3723 7.4352)" style="fill:#1E5AD0;" width="10.785" height="1.001"/>
			</g>
			<g style="opacity:0.6;">
				
					<rect x="224.334" y="373.724" transform="matrix(0.0435 -0.9991 0.9991 0.0435 -163.8219 587.3528)" style="fill:#1E5AD0;" width="1.001" height="11.018"/>
			</g>
			<path style="fill:#141D32;" d="M135.597,211.936c0,0,6.567,4.105,6.978,8.62c0.411,4.515,2.052-6.567,2.052-13.135l0.41-6.567
				l1.642,9.03c0,0,17.65,0.41,20.113-0.411c2.463-0.821,0.821-9.851,0.821-9.851l2.052,10.262l7.388-0.821
				c0,0-1.231-28.732-29.553-21.754C147.501,187.309,129.03,191.824,135.597,211.936z"/>
			<g>
				<path style="fill:#FFBF9A;" d="M125.91,250.468c0,0-13.232,27.484-3.548,32.977c0,0,9.085,1.563,15.084-25.89
					C137.445,257.555,134.48,245.14,125.91,250.468z"/>
				<path style="fill:#E44D77;" d="M134.237,245.829c0,0-12.035-2.283-14.998,19.642l22.701,2.875
					C141.94,268.347,145.496,248.792,134.237,245.829z"/>
				<path style="fill:#FFBF9A;" d="M121.168,282.779c0,0,10.415,9.341,33.997,13.587l4.547-5.579l-28.124-16.369
					C131.588,274.418,116.703,274.617,121.168,282.779z"/>
				<g style="opacity:0.51;">
					
						<rect x="133.818" y="259.123" transform="matrix(0.9701 -0.2426 0.2426 0.9701 -59.8227 40.4375)" style="fill:#141D32;" width="0.999" height="8.109"/>
				</g>
				<g style="opacity:0.51;">
					
						<rect x="126.934" y="256.508" transform="matrix(0.1713 -0.9852 0.9852 0.1713 -154.6534 344.4536)" style="fill:#141D32;" width="1" height="15.304"/>
				</g>
				<path style="fill:#FFBF9A;" d="M157.131,290.65c-0.246,0.098-0.364,0.202-0.364,0.202l-0.256-0.084
					c-1.139,0.703-2.276,1.655-2.711,2.874c-0.424,1.191-0.04,2.101,0.623,2.949l0.035,0.006l5.648,4.338
					c0.891,0.845,3.266,3.09,3.551,3.272c0.352,0.224,0.727-0.047,0.727-0.047c0.801-0.608-2.462-3.465-2.921-3.861
					c0.081-0.062,0.162-0.128,0.244-0.197c1.488,1.305,4.327,3.782,4.682,4.004c0.484,0.303,0.897-0.029,0.897-0.029
					c0.86-0.739-3.662-4.473-4.411-5.082c0.125-0.13,0.248-0.262,0.37-0.394c1.69,1.289,5.348,4.069,5.775,4.306
					c0.558,0.31,0.944-0.052,0.944-0.052c0.871-0.876-5.548-5.372-5.548-5.372c-0.044-0.029-0.087-0.056-0.13-0.082
					c0.127-0.153,0.248-0.302,0.362-0.443c1.645,1.007,5.032,3.069,5.431,3.233c0.529,0.217,0.879-0.181,0.879-0.181
					c0.787-0.953-5.328-4.323-5.328-4.323l-2.811-3.002c0.195-0.28,0.631-0.448,1.494-0.328c1.673,0.232,1.798-0.084,1.798-0.084
					c0.483-1.513-2.359-1.629-4.81-2.201C159.464,289.645,157.832,290.297,157.131,290.65z"/>
			</g>
			<g style="opacity:0.57;">
				<path style="fill:#E44D77;" d="M167.48,224.361c-0.265,0-0.416-0.025-0.433-0.027c-0.271-0.046-0.446-0.271-0.392-0.503
					c0.054-0.232,0.313-0.384,0.588-0.335c0.003-0.001,0.958,0.134,2.479-0.516c0.803-0.343,0.294-3.441-0.684-6.119
					c-0.082-0.225,0.065-0.465,0.328-0.535c0.26-0.072,0.544,0.055,0.626,0.281c0.535,1.464,2.129,6.304,0.177,7.138
					C168.943,224.268,167.996,224.361,167.48,224.361z"/>
			</g>
			<path style="fill:#141D32;" d="M161.445,217.253c0,1.189-0.53,2.154-1.184,2.154c-0.654,0-1.185-0.964-1.185-2.154
				s0.53-2.154,1.185-2.154C160.915,215.099,161.445,216.064,161.445,217.253z"/>
			<path style="fill:#141D32;" d="M173.399,216.607c0,1.189-0.53,2.154-1.185,2.154c-0.654,0-1.184-0.964-1.184-2.154
				s0.53-2.154,1.184-2.154C172.869,214.453,173.399,215.417,173.399,216.607z"/>
			<path style="fill:#FFFFFF;" d="M141.738,227.914c0,0.892-0.723,1.615-1.615,1.615c-0.892,0-1.615-0.723-1.615-1.615
				c0-0.892,0.723-1.615,1.615-1.615C141.015,226.299,141.738,227.022,141.738,227.914z"/>
			<path style="fill:#E44D77;" d="M163.492,230.607c0.345-0.486,0.787-0.865,1.262-1.191c0.474-0.33,0.996-0.587,1.549-0.782
				c0.558-0.173,1.14-0.315,1.746-0.285c0.597,0.017,1.218,0.167,1.689,0.535c-1.168,0.067-2.1,0.351-3.113,0.697
				C165.617,229.908,164.631,230.321,163.492,230.607z"/>
			<path style="fill:#141D32;" d="M154.661,215.099c0,0,5.384-1.077,6.892-3.661l-0.862-1.077
				C160.692,210.361,155.738,214.884,154.661,215.099z"/>
			<path style="fill:#141D32;" d="M176.395,213.492c0,0-5.459-0.595-7.19-3.036l0.763-1.149
				C169.969,209.307,175.304,213.373,176.395,213.492z"/>
			<path style="opacity:0.37;fill:#E44D77;" d="M162.199,220.807c0,0.297-0.771,0.538-1.723,0.538s-1.723-0.241-1.723-0.538
				c0-0.297,0.771-0.538,1.723-0.538S162.199,220.51,162.199,220.807z"/>
			<path style="opacity:0.37;fill:#E44D77;" d="M173.184,220.268c0,0.297-0.386,0.538-0.861,0.538s-0.861-0.241-0.861-0.538
				c0-0.297,0.386-0.538,0.861-0.538S173.184,219.971,173.184,220.268z"/>
			<path style="opacity:0.56;fill:#E44D77;" d="M128.17,275.621c0.165-0.394,0.428-0.7,0.724-0.961
				c0.294-0.266,0.639-0.468,1.013-0.623c0.379-0.135,0.784-0.243,1.213-0.206c0.419,0.025,0.861,0.174,1.143,0.497
				c-0.422,0.075-0.737,0.175-1.055,0.279c-0.313,0.109-0.622,0.232-0.935,0.36C129.631,275.203,128.994,275.483,128.17,275.621z"/>
			<path style="opacity:0.56;fill:#E44D77;" d="M191.921,264.852c-0.043,1.007-0.267,1.876-0.489,2.748
				c-0.241,0.874-0.477,1.686-0.803,2.636c-0.472-0.915-0.396-1.97-0.163-2.895C190.737,266.415,191.162,265.528,191.921,264.852z"
				/>
		</g>
		<path style="fill:#FFBF9A;" d="M216.641,247.929c0,0,6.029-12.133,12.362-7.327c0,0-1.238,3.385-2.949,6.079
			c-1.711,2.694-7.568,8.206-7.568,8.206S211.887,250.052,216.641,247.929z"/>
	</g>
	<g>
		<g>
			<path style="fill:#141D32;" d="M305.831,379.662c0,0-2.708,12.167-0.304,14.136s34.881,7.992,30.646,2.039
				c-4.235-5.953-20.161-6.515-20.328-19.661C315.845,376.176,304.908,374.042,305.831,379.662z"/>
			<path style="opacity:0.45;fill:#FFFFFF;" d="M336.173,395.837c-0.455-0.64-1.051-1.215-1.743-1.753
				c-0.711,2.001-2.427,3.457-5.275,3.147c-8.435-0.918-16.661-1.799-24.447-5.214c0.152,0.813,0.41,1.447,0.818,1.781
				C307.931,395.767,340.408,401.79,336.173,395.837z"/>
		</g>
		<g>
			<path style="fill:#141D32;" d="M285.157,385.61c0,0-2.708,12.167-0.304,14.136c2.404,1.969,34.88,7.992,30.646,2.039
				c-4.235-5.953-20.161-6.515-20.328-19.661C295.171,382.123,284.234,379.989,285.157,385.61z"/>
			<path style="opacity:0.45;fill:#FFFFFF;" d="M315.499,401.784c-0.455-0.64-1.052-1.215-1.743-1.752
				c-0.711,2.001-2.427,3.457-5.275,3.147c-8.435-0.918-16.661-1.799-24.447-5.215c0.152,0.813,0.41,1.447,0.818,1.781
				C287.258,401.714,319.734,407.738,315.499,401.784z"/>
		</g>
		<path style="fill:#1E5AD0;" d="M291.292,322.173c0.11-0.593,0.131-1.246,0.028-1.979l-0.225-0.121l-0.001-0.014
			c0,0-0.212-0.116-0.583-0.3l-47.974-25.834c0,0-23.329-0.975-20.865,6.21c0,0-1.303,22.722,51.22,26.794
			c-1.324,8.565-0.948,26.147,10.282,59.274l14.169,0.578L291.292,322.173z"/>
		<path style="opacity:0.4;fill:#141D32;" d="M283.93,375.172c-4.592-3.184-5.12-9.668-5.865-14.724
			c-0.927-6.292-2.388-12.488-3.269-18.786c-0.812-5.807-1.391-12.216,1.014-17.742c-3.521-0.223-7.032-0.586-10.561-1.58
			c-6.937-1.953-13.733-4.507-20.302-7.464c-8.34-3.754-18.249-9.119-22.646-17.624c-0.743,0.774-1.027,1.72-0.628,2.882
			c0,0-1.303,22.722,51.22,26.794c-1.324,8.565-0.948,26.147,10.282,59.274l14.169,0.578l-1.42-15.158
			C293.763,376.159,288.66,378.452,283.93,375.172z"/>
		<path style="fill:#1E5AD0;" d="M242.013,296.066c0,0-1.382,23.932,55.452,27.078c0,0,15.436,1.777,14.195-7.019l-48.783-26.269
			C262.879,289.857,239.55,288.882,242.013,296.066z"/>
		<path style="fill:#1E5AD0;" d="M295.474,315.771c0,0-10.416,12.509,7.652,65.804l14.748-0.289l-6.439-65.295
			C311.435,315.991,299.105,309.225,295.474,315.771z"/>
		<path style="opacity:0.4;fill:#141D32;" d="M316.422,366.56c-2.424,3.913-7.941,4.198-11.369,0.757
			c-3.493-3.506-4.988-9.138-6.476-13.694c-2.519-7.711-4.961-15.637-6.081-23.677c-0.143,9.919,1.972,26.088,10.631,51.629
			l14.747-0.289L316.422,366.56z"/>
		<path style="fill:#FDC75E;" d="M244.812,238.488c0,0-16.643,1.849-18.492,4.438c-1.849,2.589-10.725,52.147-3.329,61.763
			c0,0,39.203-0.74,47.339-10.355c0,0-6.287-32.915,0-41.422l-8.506-9.616L244.812,238.488z"/>
		<path style="fill:#FDC75E;" d="M260.509,294.595c-7.213,4.174-16.409,1.268-22.507-3.519c-7.146-5.61-10.114-13.359-12.13-21.935
			c-1.052-4.474-1.902-9.035-2.47-13.627c-2.782,16.057-5.596,42.432-0.41,49.174c0,0,39.203-0.74,47.339-10.355
			c0,0-0.733-3.838-1.448-9.229C266.869,288.936,264.246,292.432,260.509,294.595z"/>
		<path style="fill:#C95940;" d="M285.63,221.73c0.11-0.197,0.233-0.381,0.336-0.583c0.79-1.55,1.318-3.164,1.64-4.796
			c0.02-0.06,0.034-0.102,0.034-0.102s-0.007-0.014-0.009-0.016c1.547-8.117-2.486-16.705-10.425-20.749
			c-9.573-4.877-21.173-1.295-25.909,8.001c-2.053,4.03-2.473,8.471-1.518,12.607c-0.889,5.396-1.915,15.937,2.683,20.022
			c0,0,14.02,11.517,21.354,5.708C278.672,237.977,283.153,228.025,285.63,221.73z"/>
		<path style="fill:#C95940;" d="M248.192,224.7c0,0-2.586,14.04-4.253,15.681c-1.666,1.642,11.503,10.01,16.471,9.221l6.081-16.825
			C266.491,232.777,253.863,218.457,248.192,224.7z"/>
		<path style="opacity:0.43;fill:#E44D77;" d="M253.082,236.136c-0.144,1.563-0.294,3.132-0.38,4.717
			c-0.12,2.203-0.156,4.402-0.149,6.599c2.962,1.448,5.989,2.446,7.857,2.149l2.594-7.178
			C259.421,241.165,255.982,238.933,253.082,236.136z"/>
		<path style="fill:#C95940;" d="M250.419,212.8c0,0-2.967-5.887-5.851-1.787c-2.884,4.099-0.441,16.48,4.797,15.569
			C254.602,225.67,250.419,212.8,250.419,212.8z"/>
		<path style="opacity:0.43;fill:#E44D77;" d="M249.344,215.068c0,0-1.719-3.409-3.389-1.035c-1.67,2.374-0.255,9.545,2.778,9.017
			S249.344,215.068,249.344,215.068z"/>
		<path style="fill:#FDC75E;" d="M269.583,252.028c0,0,17.061,24.001,16.772,28.917c0,0-2.892,7.229-10.988,3.759l-15.326-17.639
			C260.041,267.065,262.933,250.004,269.583,252.028z"/>
		<path style="fill:#FDC75E;" d="M227.365,242.775c0,0,10.988,3.181,2.024,37.303c0,0-9.542,6.362-13.591-0.578
			C211.75,272.559,221.003,238.148,227.365,242.775z"/>
		<path style="fill:#C95940;" d="M242.615,306.184c-0.263,0.031-0.404,0.101-0.404,0.101l-0.225-0.148
			c-1.283,0.382-2.628,1.007-3.364,2.072c-0.719,1.04-0.584,2.018-0.164,3.009l0.032,0.014l4.327,5.656
			c0.641,1.047,2.351,3.832,2.579,4.082c0.281,0.307,0.714,0.144,0.714,0.144c0.931-0.379-1.478-3.986-1.818-4.487
			c0.094-0.039,0.19-0.082,0.287-0.127c1.098,1.646,3.196,4.776,3.482,5.083c0.389,0.419,0.873,0.205,0.873,0.205
			c1.023-0.49-2.375-5.271-2.94-6.053c0.154-0.093,0.307-0.188,0.46-0.285c1.297,1.684,4.108,5.318,4.459,5.659
			c0.458,0.445,0.925,0.195,0.925,0.195c1.069-0.62-3.963-6.628-3.963-6.628c-0.035-0.04-0.07-0.077-0.104-0.113
			c0.162-0.115,0.318-0.227,0.464-0.334c1.327,1.399,4.063,4.271,4.405,4.532c0.455,0.347,0.895,0.054,0.895,0.054
			c1.007-0.716-4.023-5.558-4.023-5.558l-1.935-3.629c0.261-0.22,0.726-0.269,1.528,0.071c1.556,0.659,1.758,0.386,1.758,0.386
			c0.859-1.336-1.855-2.186-4.073-3.374C245.128,305.819,243.384,306.025,242.615,306.184z"/>
		<path style="fill:#C95940;" d="M307.911,285.715c-0.111-0.24-0.125-0.397-0.125-0.397l-0.244-0.115
			c-0.343-1.294-0.512-2.767,0.012-3.951c0.512-1.156,1.417-1.552,2.482-1.71l0.029,0.02l7.083,0.74c1.228,0,4.496,0.006,4.828,0.07
			c0.409,0.08,0.495,0.534,0.495,0.534c0.162,0.992-4.171,0.82-4.777,0.791c0.016,0.101,0.03,0.205,0.042,0.311
			c1.978,0.078,5.742,0.234,6.153,0.318c0.56,0.113,0.631,0.638,0.631,0.638c0.116,1.128-5.736,0.725-6.697,0.651
			c0.001,0.18,0,0.36-0.003,0.541c2.113,0.228,6.68,0.729,7.154,0.851c0.618,0.159,0.649,0.687,0.649,0.687
			c0.029,1.235-7.722,0.078-7.722,0.078c-0.052-0.009-0.102-0.019-0.15-0.03c-0.013,0.199-0.028,0.389-0.042,0.57
			c1.886,0.402,5.763,1.237,6.165,1.393c0.533,0.207,0.513,0.736,0.513,0.736c-0.085,1.233-6.84-0.531-6.84-0.531l-4.105,0.243
			c-0.051,0.337,0.149,0.759,0.858,1.266c1.374,0.983,1.247,1.298,1.247,1.298c-0.691,1.43-2.833-0.441-5.004-1.714
			C308.912,288.049,308.177,286.453,307.911,285.715z"/>
		<path style="fill:#FDC75E;" d="M214.94,276.329c0,0-2.031,11.688,23.197,34.945l6.898-4.782l-16.632-25.796
			C228.403,280.696,219.307,267.726,214.94,276.329z"/>
		<path style="fill:#FDC75E;" d="M275.367,284.704c0,0,6.651,8.675,34.411,2.603l0.289-8.386l-25.158-2.313
			C284.909,276.607,271.897,276.029,275.367,284.704z"/>
		<g style="opacity:0.4;">
			<path style="fill:#141D32;" d="M244.194,303.951c0.048,0,0.091,0.006,0.138,0.007l-17.165-25.846
				c3.949-7.103,7.956-23.623,8.127-24.332c0.064-0.269-0.101-0.539-0.369-0.603c-0.266-0.064-0.538,0.1-0.603,0.369
				c-0.042,0.172-4.119,16.978-7.992,24.006c-1.839-0.331-4.184,1.241-4.464,1.435c-0.227,0.157-0.284,0.469-0.126,0.696
				c0.097,0.14,0.253,0.215,0.412,0.215c0.098,0,0.197-0.029,0.284-0.089c0.678-0.47,2.639-1.561,3.839-1.234l16.907,25.458
				C243.504,303.985,243.838,303.951,244.194,303.951z"/>
			<path style="fill:#141D32;" d="M263.05,244.937c-0.276,0.013-0.489,0.247-0.476,0.523c0.176,3.697-2.826,4.968-3.37,5.168
				c-13.56-0.656-18.194-11.393-18.24-11.501c-0.106-0.255-0.398-0.374-0.653-0.27c-0.255,0.106-0.375,0.398-0.27,0.653
				c0.048,0.115,4.928,11.481,19.213,12.121l0.088,0.004l0.085-0.027c0.044-0.014,4.373-1.437,4.146-6.196
				C263.56,245.136,263.312,244.917,263.05,244.937z"/>
			<path style="fill:#141D32;" d="M265.967,259.706c-0.274,0.033-0.47,0.282-0.437,0.556l1.898,15.821
				c0.031,0.254,0.247,0.44,0.496,0.44c0.02,0,0.04-0.001,0.06-0.003c0.274-0.033,0.47-0.282,0.437-0.556l-1.898-15.821
				C266.491,259.869,266.242,259.675,265.967,259.706z"/>
			<path style="fill:#141D32;" d="M285.283,276.276c-0.183-0.206-0.498-0.226-0.706-0.042c-0.104,0.092-2.549,2.281-3.003,4.098
				c-0.067,0.268,0.096,0.539,0.364,0.606c0.041,0.01,0.082,0.015,0.122,0.015c0.224,0,0.428-0.151,0.484-0.379
				c0.315-1.259,2.054-3.021,2.698-3.593C285.448,276.797,285.467,276.482,285.283,276.276z"/>
			<path style="fill:#141D32;" d="M261.644,279.534c-0.274-0.033-0.519,0.176-0.545,0.45c-0.812,8.517-10.86,15.385-10.962,15.454
				c-0.229,0.154-0.29,0.465-0.135,0.694c0.097,0.144,0.254,0.221,0.415,0.221c0.096,0,0.193-0.028,0.279-0.085
				c0.43-0.29,10.542-7.197,11.398-16.188C262.121,279.804,261.919,279.56,261.644,279.534z"/>
		</g>
		<path style="opacity:0.47;fill:#141D32;" d="M272.355,305.977c2.064,0.881,4.063,1.89,6.043,2.936
			c1.985,1.038,3.919,2.169,5.825,3.353c1.886,1.215,3.776,2.436,5.464,3.985c0.413,0.403,0.832,0.789,1.16,1.341
			c0.291,0.607,0.388,1.102,0.532,1.674c0.214,1.115,0.353,2.261,0.171,3.376c-0.046-1.119-0.28-2.209-0.644-3.246
			c-0.169-0.496-0.366-1.092-0.598-1.473c-0.276-0.394-0.712-0.753-1.128-1.092c-1.723-1.343-3.612-2.536-5.492-3.719l-5.674-3.535
			l-2.843-1.772C274.239,307.189,273.285,306.607,272.355,305.977z"/>
		<path style="fill:#141D32;" d="M247.499,209.475c0,0,3.943,1.434,3.585,7.17c-0.358,5.736,2.509,4.66,3.585-0.717
			c1.075-5.377,7.169-18.999,12.905-14.339c5.736,4.66,12.905,6.452,15.773,3.226c0,0,6.094,3.226,2.509,13.622l-2.151,7.169
			c0,0,13.622-18.999-7.886-31.546C275.818,194.06,254.31,184.382,247.499,209.475z"/>
		<path style="fill:#141D32;" d="M262.263,216.2c0,0,6.733,1.024,8.528-1.241l-0.794-1.934c0,0-6.348,1.21-8.883,1.187
			S260.244,215.167,262.263,216.2z"/>
		<path style="fill:#141D32;" d="M282.51,221.43c0,0-5.035-3.507-4.904-5.957l1.646-0.669c0,0,3.484,4.605,5.169,6.141
			C286.106,222.483,284.441,222.049,282.51,221.43z"/>
		<path style="fill:#141D32;" d="M263.63,220.229c0.059,0.942,0.222,1.857,0.619,2.581c0.384,0.722,1.08,1.159,1.849,1.262
			c0.734,0.17,1.344-0.284,1.822-0.997c0.456-0.724,0.787-1.59,1.088-2.488c0.109,0.949-0.003,1.925-0.4,2.857
			c-0.197,0.467-0.526,0.915-0.991,1.254c-0.468,0.34-1.117,0.463-1.659,0.363c-1.068-0.139-2.095-0.913-2.417-1.934
			C263.192,222.138,263.284,221.114,263.63,220.229z"/>
		<path style="fill:#141D32;" d="M277.505,223.914c0.057,0.942,0.213,1.857,0.595,2.581c0.369,0.722,1.038,1.159,1.777,1.262
			c0.705,0.17,1.292-0.284,1.751-0.997c0.438-0.723,0.756-1.59,1.045-2.488c0.105,0.949-0.003,1.925-0.385,2.857
			c-0.189,0.467-0.505,0.915-0.953,1.254c-0.449,0.34-1.074,0.463-1.595,0.363c-1.027-0.139-2.014-0.913-2.322-1.934
			C277.084,225.823,277.173,224.799,277.505,223.914z"/>
		<path style="fill:#141D32;" d="M275.101,224.531c0.332,1.005,0.53,2.036,0.66,3.076c0.133,1.042,0.177,2.095,0.113,3.164
			c-0.048,0.534-0.114,1.072-0.267,1.618c-0.081,0.271-0.183,0.546-0.347,0.82c-0.143,0.263-0.444,0.578-0.799,0.669
			c-0.555,0.171-1.188,0.189-1.726-0.031c-0.535-0.215-0.971-0.601-1.218-1.072c0.832,0.679,1.864,0.783,2.67,0.372
			c0.24-0.111,0.415-0.531,0.504-0.995c0.102-0.459,0.158-0.954,0.187-1.453C275.016,228.691,274.947,226.629,275.101,224.531z"/>
		<path style="fill:#141D32;" d="M267.215,236.36c0.538-0.241,1.105-0.342,1.673-0.381c0.57-0.046,1.144,0.005,1.713,0.118
			c0.564,0.13,1.132,0.318,1.629,0.666c0.495,0.33,0.937,0.812,1.079,1.39c-0.488-0.333-0.951-0.526-1.431-0.693
			c-0.479-0.161-0.978-0.284-1.487-0.385C269.375,236.842,268.327,236.699,267.215,236.36z"/>
	</g>
	<g>
		<g>
			<path style="fill:#C95940;" d="M420.036,239.214c0,0-7.395-5.106-17.117,35.062c0,0,3.302,7.489,9.478,4.724
				C418.573,276.236,437.326,233.078,420.036,239.214z"/>
			<path style="fill:#FFBF9A;" d="M401.969,244.889c-0.193,0.181-0.338,0.244-0.338,0.244l-0.032,0.267
				c-1.12,0.733-2.465,1.358-3.754,1.233c-1.258-0.122-1.919-0.856-2.405-1.817l0.01-0.034l-1.528-6.956
				c-0.387-1.165-1.41-4.269-1.453-4.604c-0.053-0.413,0.351-0.638,0.351-0.638c0.891-0.467,2.091,3.701,2.255,4.285
				c0.091-0.047,0.185-0.092,0.282-0.138c-0.549-1.901-1.586-5.523-1.636-5.94c-0.069-0.568,0.407-0.799,0.407-0.799
				c1.034-0.465,2.494,5.215,2.727,6.152c0.17-0.058,0.342-0.113,0.514-0.167c-0.449-2.078-1.411-6.57-1.445-7.058
				c-0.044-0.637,0.448-0.833,0.448-0.833c1.164-0.417,2.506,7.304,2.506,7.304c0.008,0.053,0.014,0.103,0.019,0.152
				c0.193-0.05,0.378-0.096,0.555-0.139c-0.212-1.917-0.641-5.86-0.62-6.29c0.029-0.571,0.537-0.719,0.537-0.719
				c1.197-0.308,1.65,6.66,1.65,6.66l1.523,3.82c0.336-0.058,0.674-0.381,0.932-1.213c0.501-1.613,0.84-1.592,0.84-1.592
				c1.575,0.206,0.473,2.827-0.051,5.289C403.869,243.204,402.586,244.404,401.969,244.889z"/>
			<path style="fill:#C95940;" d="M412.037,276.803c0,0,4.916-9.719-6.169-33.922l-11.854,2.879l7.334,24.535
				C401.347,270.295,404.896,282.828,412.037,276.803z"/>
			<path style="fill:#141D32;" d="M409.616,252.217c0.721,0.82,1.29,1.756,1.778,2.725c0.495,0.969,0.877,1.991,1.19,3.034
				c0.302,1.046,0.524,2.118,0.614,3.206c0.117,1.082,0.075,2.183-0.094,3.255c-0.248-1.065-0.421-2.105-0.677-3.131
				c-0.241-1.026-0.495-2.045-0.803-3.049C411.049,256.233,410.34,254.26,409.616,252.217z"/>
		</g>
		<g>
			<path style="fill:#C95940;" d="M462.536,238.034c0,0,7.395-5.106,17.117,35.062c0,0-3.302,7.489-9.478,4.724
				C463.999,275.056,445.246,231.898,462.536,238.034z"/>
			<path style="fill:#FFBF9A;" d="M480.603,243.709c0.193,0.181,0.337,0.244,0.337,0.244l0.033,0.267
				c1.12,0.733,2.465,1.358,3.754,1.233c1.258-0.122,1.919-0.856,2.405-1.817l-0.009-0.034l1.528-6.956
				c0.387-1.165,1.41-4.269,1.454-4.604c0.053-0.413-0.351-0.638-0.351-0.638c-0.891-0.467-2.091,3.701-2.255,4.285
				c-0.091-0.047-0.185-0.092-0.282-0.138c0.549-1.901,1.586-5.523,1.636-5.94c0.069-0.567-0.407-0.799-0.407-0.799
				c-1.034-0.465-2.494,5.215-2.727,6.152c-0.17-0.057-0.342-0.113-0.514-0.167c0.449-2.078,1.411-6.57,1.445-7.058
				c0.044-0.637-0.448-0.833-0.448-0.833c-1.163-0.417-2.506,7.304-2.506,7.304c-0.008,0.053-0.014,0.103-0.019,0.152
				c-0.193-0.05-0.378-0.096-0.554-0.139c0.212-1.917,0.641-5.86,0.62-6.29c-0.029-0.571-0.537-0.719-0.537-0.719
				c-1.197-0.308-1.65,6.66-1.65,6.66l-1.523,3.82c-0.336-0.058-0.674-0.381-0.932-1.213c-0.501-1.614-0.84-1.592-0.84-1.592
				c-1.575,0.206-0.473,2.827,0.051,5.289C478.703,242.025,479.986,243.224,480.603,243.709z"/>
			<path style="fill:#C95940;" d="M470.535,275.623c0,0-4.916-9.719,6.169-33.922l11.854,2.879l-7.333,24.535
				C481.225,269.115,477.676,281.648,470.535,275.623z"/>
			<path style="fill:#141D32;" d="M472.957,251.037c-0.721,0.82-1.29,1.756-1.778,2.725c-0.495,0.969-0.877,1.991-1.19,3.034
				c-0.301,1.046-0.524,2.118-0.614,3.206c-0.117,1.082-0.075,2.183,0.094,3.255c0.248-1.065,0.421-2.105,0.677-3.131
				c0.241-1.026,0.495-2.045,0.803-3.049C471.524,255.053,472.233,253.08,472.957,251.037z"/>
		</g>
		<g>
			<defs>
				<path id="SVGID_1_" d="M431.694,235.113l-16.786,5.563c0,0,5.294,42.697,4.705,49.023c-0.588,6.326-7.058,10.015-1.176,12.651
					c5.882,2.636,41.172,5.798,45.289,0c4.117-5.798,0.588-61.146-0.588-63.255c-1.176-2.109-12.352-3.163-12.352-3.163
					L431.694,235.113z"/>
			</defs>
			<clipPath id="SVGID_00000034812256156681414280000011003848668460577945_">
				<use xlink:href="#SVGID_1_"  style="overflow:visible;"/>
			</clipPath>
			<path style="clip-path:url(#SVGID_00000034812256156681414280000011003848668460577945_);fill:#C95940;" d="M463.137,239.094
				c-1.176-2.108-12.352-3.163-12.352-3.163l-19.092-0.818l-15.066,4.993c1.435,12.953,4.534,25.687,5.031,38.757
				c0.216,5.678-0.725,10.698-3.551,15.618c-1.761,3.551-3.885,5.981,0.328,7.869c5.882,2.636,41.172,5.798,45.289,0
				S464.313,241.202,463.137,239.094z"/>
			<path style="opacity:0.43;clip-path:url(#SVGID_00000034812256156681414280000011003848668460577945_);fill:#E44D77;" d="
				M465.329,267.009c-1.434,6.638-3.941,12.972-8.816,17.965c-10.561,10.816-24.855,9.223-35.334,1.142
				c-0.53,2.881-1.506,5.64-3.071,8.365c-1.761,3.551-3.885,5.981,0.328,7.869c5.882,2.636,41.172,5.798,45.289,0
				C465.892,299.297,465.941,282.524,465.329,267.009z"/>
			
				<path style="clip-path:url(#SVGID_00000034812256156681414280000011003848668460577945_);fill:none;stroke:#141D32;stroke-miterlimit:10;" d="
				M418.666,244.821c14.749,2.514,34.694,4.906,47.764-4.097"/>
			
				<path style="clip-path:url(#SVGID_00000034812256156681414280000011003848668460577945_);fill:none;stroke:#141D32;stroke-miterlimit:10;" d="
				M420.361,256.868c14.801,2.291,34.486,4.455,47.642-4.344"/>
			
				<path style="clip-path:url(#SVGID_00000034812256156681414280000011003848668460577945_);fill:none;stroke:#141D32;stroke-miterlimit:10;" d="
				M421.809,269.278c14.427,2.092,33.406,3.992,46.194-4.562"/>
			
				<path style="clip-path:url(#SVGID_00000034812256156681414280000011003848668460577945_);fill:none;stroke:#141D32;stroke-miterlimit:10;" d="
				M422.731,281.602c14.186,1.97,32.72,3.704,45.272-4.692"/>
			
				<path style="clip-path:url(#SVGID_00000034812256156681414280000011003848668460577945_);fill:none;stroke:#141D32;stroke-miterlimit:10;" d="
				M420.361,293.446c14.801,2.291,34.486,4.455,47.642-4.345"/>
		</g>
		<g>
			<polygon style="fill:#FFBF9A;" points="418.422,371.298 418.809,376.751 427.32,376.751 427.32,370.15 			"/>
			<path style="fill:#141D32;" d="M418.463,298.733c-1.074-0.055-2.032,0.122-2.88,0.511c-0.638,0.188-1.73,0.887-2.005,1.508
				c-10.612,11.808,4.226,71.108,4.226,71.108l10.332,0.153c0,0,3.925-32.423,2.836-55.775
				C430.24,300.534,423.078,298.43,418.463,298.733z"/>
			<polygon style="fill:#FFBF9A;" points="460.265,371.43 459.878,376.883 451.366,376.883 451.366,370.281 			"/>
			<path style="fill:#141D32;" d="M460.224,298.866c1.074-0.055,2.032,0.122,2.879,0.511c0.638,0.188,1.73,0.887,2.005,1.508
				c10.612,11.808-4.226,71.108-4.226,71.108l-10.332,0.153c0,0-3.925-32.423-2.836-55.775
				C448.447,300.666,455.609,298.562,460.224,298.866z"/>
			<g>
				<path style="fill:#141D32;" d="M417.903,376.768c0,0-0.219,3.287-2.411,4.822c0,0-4.164,7.232,3.068,7.671
					c0,0,9.643,0.438,10.52-0.219c0.877-0.658,2.849-1.534-1.096-7.013l-0.701-4.524
					C427.283,377.504,424.259,372.604,417.903,376.768z"/>
				<path style="fill:#FFFFFF;" d="M414.616,386.849c2.635,0.278,5.198,0.546,7.779,0.633c1.288,0.069,2.576,0.054,3.868,0.027
					c1.297-0.016,2.581-0.15,3.914-0.222c-1.22,0.518-2.515,0.899-3.835,1.078c-1.318,0.205-2.658,0.269-3.989,0.217
					c-1.331-0.063-2.657-0.211-3.956-0.496C417.099,387.806,415.817,387.427,414.616,386.849z"/>
				<path style="fill:#FFFFFF;" d="M419.875,379.836c0.338-0.466,0.817-0.792,1.333-1.02c0.518-0.234,1.095-0.338,1.677-0.34
					c0.58,0.011,1.169,0.141,1.677,0.424c0.519,0.253,0.942,0.672,1.231,1.155c-0.568-0.117-1.037-0.275-1.521-0.345
					c-0.474-0.084-0.935-0.141-1.403-0.132C421.928,379.551,420.991,379.696,419.875,379.836z"/>
				<path style="fill:#FFFFFF;" d="M419.875,382.685c0.376-0.444,0.865-0.744,1.386-0.963c0.523-0.223,1.095-0.335,1.683-0.347
					c0.588,0.015,1.193,0.145,1.716,0.445c0.528,0.291,0.929,0.773,1.133,1.304c-0.544-0.219-0.988-0.41-1.457-0.507
					c-0.467-0.087-0.921-0.142-1.395-0.14C421.984,382.472,421.012,382.62,419.875,382.685z"/>
			</g>
			<g>
				<path style="fill:#141D32;" d="M460.408,375.575c0,0,0.219,3.287,2.411,4.822c0,0,4.164,7.232-3.068,7.671
					c0,0-9.643,0.438-10.52-0.219c-0.877-0.658-2.849-1.534,1.096-7.013l0.701-4.524
					C451.027,376.31,454.052,371.411,460.408,375.575z"/>
				<path style="fill:#FFFFFF;" d="M463.695,385.656c-2.635,0.278-5.198,0.546-7.779,0.633c-1.288,0.069-2.576,0.054-3.868,0.027
					c-1.297-0.016-2.581-0.15-3.913-0.222c1.22,0.518,2.515,0.899,3.835,1.078c1.318,0.205,2.658,0.269,3.989,0.217
					c1.331-0.063,2.657-0.211,3.956-0.496C461.211,386.613,462.494,386.233,463.695,385.656z"/>
				<path style="fill:#FFFFFF;" d="M458.435,378.643c-0.338-0.466-0.817-0.792-1.333-1.02c-0.518-0.234-1.095-0.338-1.677-0.34
					c-0.58,0.011-1.169,0.141-1.677,0.424c-0.519,0.253-0.942,0.672-1.231,1.155c0.568-0.117,1.037-0.275,1.521-0.345
					c0.474-0.084,0.935-0.141,1.403-0.132C456.382,378.358,457.32,378.503,458.435,378.643z"/>
				<path style="fill:#FFFFFF;" d="M458.435,381.492c-0.376-0.443-0.865-0.744-1.386-0.963c-0.523-0.223-1.095-0.335-1.683-0.348
					c-0.588,0.016-1.193,0.145-1.716,0.445c-0.528,0.291-0.929,0.773-1.133,1.303c0.544-0.219,0.988-0.41,1.457-0.507
					c0.467-0.086,0.921-0.142,1.395-0.14C456.326,381.279,457.299,381.427,458.435,381.492z"/>
			</g>
			<path style="fill:#141D32;" d="M461.603,297.148c-2.255-0.375-4.649-0.19-7.352,0.935c-4.542,1.891-8.325,4.72-13.411,5.328
				c-4.247,0.508-7.741-0.636-11.584-2.142c-2.87-1.124-9.49-4.743-12.901-3.067c-2.77,2.471-4.383,5.409-4.383,8.565
				c0,8.761,12.379,15.863,27.65,15.863c15.271,0,27.65-7.102,27.65-15.863C467.274,303.15,466.511,298.307,461.603,297.148z"/>
			<g>
				<path style="opacity:0.46;fill:#1E5AD0;" d="M429.149,305.171c0.617,1.271,1.081,2.596,1.432,3.939
					c0.365,1.342,0.616,2.705,0.79,4.076c0.161,1.372,0.255,2.751,0.214,4.13c-0.005,1.378-0.184,2.756-0.449,4.113
					c-0.229-2.749-0.404-5.45-0.759-8.15c-0.152-1.351-0.357-2.697-0.561-4.047C429.598,307.885,429.393,306.532,429.149,305.171z"
					/>
				<path style="opacity:0.46;fill:#1E5AD0;" d="M449.69,306.209c-0.339,1.31-0.627,2.614-0.913,3.913
					c-0.269,1.302-0.515,2.604-0.696,3.911c-0.211,1.305-0.306,2.617-0.388,3.933c-0.07,1.318-0.04,2.636,0.009,3.982
					c-0.432-1.286-0.73-2.627-0.79-3.977c-0.077-1.349-0.022-2.706,0.177-4.045C447.496,311.254,448.29,308.612,449.69,306.209z"/>
			</g>
		</g>
		<g>
			<path style="fill:#2E0704;" d="M444.471,228.299c0,0,6.829-1.138,6.829-12.758C451.3,215.541,444.077,211.203,444.471,228.299z"
				/>
			<path style="fill:#FFBF9A;" d="M430.03,213.098c0,0,2.589,19.107,1.664,22.014c-0.925,2.908,13.863,7.029,18.059,3.572
				l-0.419-24.37C449.334,214.314,432.949,202.369,430.03,213.098z"/>
			<path style="opacity:0.73;fill:#FFBF9A;" d="M433.029,233.273c2.689,2.198,8.411,1.767,11.432,0.653
				c3.185-1.175,4.541-3.806,5.021-7.032c0.024-0.159,0.038-0.319,0.059-0.479l-0.208-12.101c0,0-16.385-11.945-19.304-1.216
				c0,0,1.806,13.334,1.861,19.417C432.278,232.719,432.658,232.97,433.029,233.273z"/>
			<path style="fill:#FFBF9A;" d="M418.219,218.694c0.816,4.679,2.413,9.484,5.53,11.39c0,0,0.541,0.301,1.454,0.741
				c8.251,1.591,17.6-0.342,21.969-8.553c2.675-5.028,3.805-10.875,4.972-16.623c0.07-0.734,0.107-1.466,0.099-2.193
				c0.007-0.063,0.012-0.107,0.012-0.107s-0.009-0.012-0.011-0.014c-0.14-8.287-5.499-15.89-13.573-18.228
				c-8.679-2.514-17.529,1.913-21.168,10.056c-0.587,5.055-0.627,10.233-0.241,15.375c0.059,0.145,0.108,0.296,0.17,0.439
				c0.055,1.363,0.164,3.041,0.373,4.839C417.928,216.78,418.067,217.739,418.219,218.694z"/>
			<path style="fill:#2E0704;" d="M447.808,209.555c0.033-0.001,0.063-0.005,0.096-0.005c0.697,0,1.326,0.105,1.888,0.293
				c0.94-3.759,1.965-7.099,1.965-7.099l0.003-10.055l2.822-4.782l-4.844,1.654l-1.715-5.396l-0.615,4.537
				c-6.25-11.038-26.914-5.956-26.914-5.956s-5.884-7.727-8.889-4.601c-1.635,1.7,0.629,5.774,2.61,8.558
				c-1.802-1.451-3.322-1.068-4.33,1.129c-1.35,2.942,4.228,7.911,4.228,7.911c5.639,5.52,23.789-1.215,28.785-1.117
				C445.939,194.685,447.243,202.743,447.808,209.555z"/>
			<path style="fill:#2E0704;" d="M421.983,207.943c0,1.037-0.44,1.877-0.983,1.877c-0.543,0-0.983-0.84-0.983-1.877
				c0-1.036,0.44-1.877,0.983-1.877C421.543,206.066,421.983,206.907,421.983,207.943z"/>
			<ellipse style="fill:#2E0704;" cx="433.424" cy="208.748" rx="0.983" ry="1.877"/>
			<path style="fill:#2E0704;" d="M417.693,204.1c0,0,4.027-1.251,4.922-0.894c0,0,0.746-0.894,0.298-1.251
				C422.465,201.597,418.289,201.955,417.693,204.1z"/>
			<path style="fill:#2E0704;" d="M439.502,203.206c0,0-5.772-1.251-7.054-0.894c0,0-1.069-0.894-0.427-1.251
				C432.661,200.704,438.646,201.061,439.502,203.206z"/>
			<path style="fill:#2E0704;" d="M451.76,192.689c0,0,5.617,7.836,1.506,16.952C453.266,209.642,444.355,200.227,451.76,192.689z"
				/>
			<path style="fill:#FFBF9A;" d="M449.376,206.008c0,0,2.129-4.542,4.414-1.506c2.285,3.036,0.697,12.492-3.31,11.934
				C446.474,215.88,449.376,206.008,449.376,206.008z"/>
			<path style="opacity:0.73;fill:#FFBF9A;" d="M450.355,207.917c0,0,1.119-2.386,2.319-0.791c1.201,1.595,0.366,6.564-1.739,6.271
				C448.831,213.104,450.355,207.917,450.355,207.917z"/>
			<path style="fill:#C95940;" d="M424.486,207.854c-0.325,1.714-0.875,3.32-1.39,4.921c-0.257,0.78-0.547,1.629-0.631,2.313
				c0.025,0.05-0.034,0.056,0.018,0.142c0.035,0.075,0.088,0.143,0.136,0.218c0.109,0.142,0.25,0.272,0.409,0.389
				c0.316,0.244,0.698,0.429,1.101,0.597c-0.439,0.036-0.885-0.031-1.321-0.192c-0.215-0.087-0.427-0.202-0.624-0.359
				c-0.188-0.156-0.375-0.352-0.449-0.736c-0.057-1.028,0.226-1.822,0.469-2.663c0.279-0.82,0.596-1.62,0.976-2.393
				C423.555,209.318,423.971,208.562,424.486,207.854z"/>
			<g>
				<path style="fill:#2E0704;" d="M421.406,219.616c0,0,5.985,0.365,6.986-0.295c1.001-0.66-0.861,3.344-3.126,3.974
					C423.001,223.927,421.406,219.616,421.406,219.616z"/>
				<path style="fill:#FFFFFF;" d="M422.42,220.717c0.604,0.215,0.649,0.23,0.135,0.045c0.375,0.079,0.753,0.144,1.133,0.194
					c0.192,0.026,1.775,0.126,1.667,0.146c0.876,0.001,1.753-0.064,2.626-0.166c0.677-1.045,0.931-1.956,0.412-1.614
					c-1.001,0.66-6.986,0.295-6.986,0.295s0.151,0.405,0.422,0.946C422.026,220.612,422.225,220.648,422.42,220.717z"/>
			</g>
		</g>
	</g>
</g>
</svg>
